<?xml version="1.0" encoding="UTF-8"?>
<!DOCTYPE svg PUBLIC "-//W3C//DTD SVG 1.0//EN" "http://www.w3.org/TR/2001/REC-SVG-20010904/DTD/svg10.dtd">
<svg width="203mm" height="260mm" viewBox="0 0 20300 26000">
 <g style="stroke:none;fill:rgb(255,129,0)">
  <polygon points="1774,24233 1274,24233 1274,24233 1258,24231 1243,24228 1228,24222 1215,24213 1203,24203 1193,24191 1184,24178 1178,24163 1174,24133 1274,24133 1274,24033 1774,24033 1774,24233"/>
  <polygon points="1174,24133 1174,7301 1174,7301 1175,7285 1178,7270 1184,7255 1193,7242 1203,7230 1215,7220 1228,7211 1243,7205 1274,7201 1274,7301 1374,7301 1374,24133 1274,24133 1174,24133"/>
  <polygon points="1274,7301 1274,7201 2134,7201 2134,7401 1274,7401 1274,7301"/>
 </g>
 <g style="font-family:Arial;font-size:635;font-weight:700">
  <g style="stroke:none;fill:rgb(0,0,0)">
   <text x="3307" y="24177">+
   </text>
   <text x="12488" y="24177">-
   </text>
  </g>
 </g>
 <g style="font-family:Arial;font-size:494;font-weight:400">
  <g style="stroke:none;fill:rgb(0,0,0)">
   <text x="2328" y="8095">K1
   </text>
  </g>
  <g style="stroke:none;fill:rgb(255,129,0)">
   <polygon points="3063,7201 3508,7201 3508,7301 3608,7301 3608,7301 3606,7316 3603,7331 3597,7346 3588,7359 3578,7371 3566,7381 3553,7390 3538,7396 3508,7401 3063,7401 3063,7201"/>
   <polygon points="3408,7301 3408,7300 3408,7300 3409,7284 3412,7269 3418,7254 3427,7241 3437,7229 3449,7219 3462,7210 3477,7204 3508,7200 3508,7300 3608,7300 3608,7301 3508,7301 3408,7301"/>
   <polygon points="3508,7300 3508,7200 3953,7200 3953,7400 3508,7400 3508,7300"/>
   <polygon points="6605,7200 9227,7200 9227,7200 9242,7201 9257,7204 9272,7210 9285,7219 9297,7229 9307,7241 9316,7254 9322,7269 9327,7300 9227,7300 9227,7400 6605,7400 6605,7200"/>
   <polygon points="9327,7300 9327,7301 9227,7301 9227,7401 9227,7401 9211,7399 9196,7396 9181,7390 9168,7381 9156,7371 9146,7359 9137,7346 9131,7331 9127,7301 9127,7300 9227,7300 9327,7300"/>
   <polygon points="9227,7301 9227,7201 11849,7201 11849,7401 9227,7401 9227,7301"/>
  </g>
  <g style="stroke:none;fill:rgb(0,0,0)">
   <text x="12065" y="8095">K2
   </text>
  </g>
  <g style="stroke:none;fill:rgb(255,129,0)">
   <polygon points="12080,12251 14780,12251 14780,12251 14795,12252 14810,12255 14825,12261 14838,12270 14850,12280 14860,12292 14869,12305 14875,12320 14880,12351 14780,12351 14780,12451 12080,12451 12080,12251"/>
   <polygon points="14880,12351 14880,24131 14880,24131 14878,24146 14875,24161 14869,24176 14860,24189 14850,24201 14838,24211 14825,24220 14810,24226 14780,24231 14780,24131 14680,24131 14680,12351 14780,12351 14880,12351"/>
   <polygon points="14780,24131 14780,24231 14280,24231 14280,24031 14780,24031 14780,24131"/>
   <polygon points="12779,7201 14780,7201 14780,7201 14795,7202 14810,7205 14825,7211 14838,7220 14850,7230 14860,7242 14869,7255 14875,7270 14880,7301 14780,7301 14780,7401 12779,7401 12779,7201"/>
   <polygon points="14880,7301 14880,24131 14880,24131 14878,24146 14875,24161 14869,24176 14860,24189 14850,24201 14838,24211 14825,24220 14810,24226 14780,24231 14780,24131 14680,24131 14680,7301 14780,7301 14880,7301"/>
   <polygon points="14780,24131 14780,24231 14280,24231 14280,24031 14780,24031 14780,24131"/>
  </g>
 </g>
 <g style="font-family:Arial;font-size:494;font-weight:700">
  <g style="stroke:none;fill:rgb(0,0,0)">
   <text x="4551" y="4100">Motor
   </text>
  </g>
  <g style="stroke:none;fill:rgb(255,129,0)">
   <polygon points="5650,4787 5650,6596 5450,6596 5450,4787 5650,4787"/>
   <polygon points="5042,4787 5042,6596 4842,6596 4842,4787 5042,4787"/>
  </g>
  <g style="stroke:rgb(0,0,0);fill:none">
   <polyline points="10838,10755 9858,10755 9858,9505 11818,9505 11818,10755 10838,10755" style="fill:none"/>
  </g>
  <g style="stroke:none;fill:rgb(0,0,0)">
   <text x="10407" y="10027">12V
   </text>
   <text x="9975" y="10582">System
   </text>
  </g>
  <g style="stroke:rgb(255,0,0);fill:none">
   <polyline points="10536,10752 10536,11621" style="fill:none"/>
  </g>
  <g style="stroke:rgb(0,0,0);fill:none">
   <polyline points="11234,10752 11234,11621" style="fill:none"/>
  </g>
  <g style="stroke:rgb(255,0,0);fill:none">
   <polyline points="12084,6966 12084,2366 2368,2366 2368,6966" style="fill:none"/>
   <polyline points="10348,9506 10348,8985 7659,8985" style="fill:none"/>
  </g>
 </g>
 <g style="font-family:Arial;font-size:494;font-weight:400">
  <g style="stroke:none;fill:rgb(0,0,0)">
   <text x="1905" y="24949">F1
   </text>
   <text x="13573" y="24923">F2
   </text>
  </g>
  <g style="stroke:none;fill:rgb(255,129,0)">
   <polygon points="2647,24033 2870,24033 2870,24033 2885,24034 2900,24037 2915,24043 2928,24052 2940,24062 2950,24074 2959,24087 2965,24102 2970,24133 2870,24133 2870,24233 2647,24233 2647,24033"/>
   <polygon points="2970,24133 2970,24134 2870,24134 2870,24234 2870,24234 2854,24232 2839,24229 2824,24223 2811,24214 2799,24204 2789,24192 2780,24179 2774,24164 2770,24134 2770,24133 2870,24133 2970,24133"/>
   <polygon points="2870,24134 2870,24034 3092,24034 3092,24234 2870,24234 2870,24134"/>
   <polygon points="13407,24231 13163,24231 13163,24131 13063,24131 13063,24131 13064,24115 13067,24100 13073,24085 13082,24072 13092,24060 13104,24050 13117,24041 13132,24035 13163,24031 13407,24031 13407,24231"/>
   <polygon points="13263,24131 13263,24134 13263,24134 13261,24149 13258,24164 13252,24179 13243,24192 13233,24204 13221,24214 13208,24223 13193,24229 13163,24234 13163,24134 13063,24134 13063,24131 13163,24131 13263,24131"/>
   <polygon points="13163,24134 13163,24234 12919,24234 12919,24034 13163,24034 13163,24134"/>
   <polygon points="1774,24233 1274,24233 1274,24233 1258,24231 1243,24228 1228,24222 1215,24213 1203,24203 1193,24191 1184,24178 1178,24163 1174,24133 1274,24133 1274,24033 1774,24033 1774,24233"/>
   <polygon points="1174,24133 1174,21490 1174,21490 1175,21474 1178,21459 1184,21444 1193,21431 1203,21419 1215,21409 1228,21400 1243,21394 1274,21390 1274,21490 1374,21490 1374,24133 1274,24133 1174,24133"/>
   <polygon points="1274,21490 1274,21390 6179,21390 6179,21590 1274,21590 1274,21490"/>
   <polygon points="9367,21390 14780,21390 14780,21390 14795,21391 14810,21394 14825,21400 14838,21409 14850,21419 14860,21431 14869,21444 14875,21459 14880,21490 14780,21490 14780,21590 9367,21590 9367,21390"/>
   <polygon points="14880,21490 14880,24131 14880,24131 14878,24146 14875,24161 14869,24176 14860,24189 14850,24201 14838,24211 14825,24220 14810,24226 14780,24231 14780,24131 14680,24131 14680,21490 14780,21490 14880,21490"/>
   <polygon points="14780,24131 14780,24231 14280,24231 14280,24031 14780,24031 14780,24131"/>
  </g>
  <g style="stroke:none;fill:rgb(0,0,0)">
   <polygon points="10024,22980 10031,22957 10042,22934 10058,22914 10079,22898 10101,22887 10124,22880 10147,22877 10169,22880 10193,22887 10215,22898 10235,22914 10251,22934 10262,22957 10270,22980 10272,23003 10270,23025 10262,23049 10251,23070 10235,23091 10215,23107 10193,23118 10169,23125 10147,23127 10124,23125 10101,23118 10079,23107 10058,23091 10042,23070 10031,23049 10024,23025 10022,23003 10024,22980"/>
  </g>
  <g style="stroke:rgb(0,0,0);fill:none">
   <polyline points="7773,22309 7773,23003 10072,23003" style="fill:none"/>
  </g>
  <g style="stroke:none;fill:rgb(0,0,0)">
   <text x="10406" y="23044">AC 120/240V
   </text>
  </g>
  <g style="stroke:rgb(0,0,0);fill:none">
   <polyline points="6181,13580 5928,13571 5708,13546 5535,13508 5421,13460 5381,13406 5421,13351 5535,13303 5708,13265 5928,13240 6181,13232 6433,13240 6653,13265 6826,13303 6940,13351 6981,13406 6940,13460 6826,13508 6653,13546 6433,13571 6181,13580" style="fill:none"/>
   <polyline points="6182,15104 5929,15095 5709,15070 5536,15032 5422,14984 5382,14930 5422,14875 5536,14827 5709,14789 5929,14764 6182,14756 6434,14764 6654,14789 6827,14827 6941,14875 6982,14930 6941,14984 6827,15032 6654,15070 6434,15095 6182,15104" style="fill:none"/>
   <polyline points="6981,13420 6982,14942" style="fill:none"/>
   <polyline points="5382,13393 5383,14916" style="fill:none"/>
  </g>
 </g>
 <g style="font-family:Arial;font-size:494;font-weight:700">
  <g style="stroke:none;fill:rgb(0,0,0)">
   <text x="5556" y="14049">Acc
   </text>
   <text x="5556" y="14604">Motor
   </text>
  </g>
 </g>
 <g style="font-family:Arial;font-size:494;font-weight:400">
  <g style="stroke:none;fill:rgb(0,0,0)">
   <text x="3889" y="16985">K3
   </text>
  </g>
  <g style="stroke:none;fill:rgb(255,129,0)">
   <polygon points="1774,24233 1274,24233 1274,24233 1258,24231 1243,24228 1228,24222 1215,24213 1203,24203 1193,24191 1184,24178 1178,24163 1174,24133 1274,24133 1274,24033 1774,24033 1774,24233"/>
   <polygon points="1174,24133 1174,16199 1174,16199 1175,16183 1178,16168 1184,16153 1193,16140 1203,16128 1215,16118 1228,16109 1243,16103 1274,16099 1274,16199 1374,16199 1374,24133 1274,24133 1174,24133"/>
   <polygon points="1274,16199 1274,16099 3736,16099 3736,16299 1274,16299 1274,16199"/>
   <polygon points="4663,16099 5904,16099 5904,16199 6004,16199 6004,16199 6002,16214 5999,16229 5993,16244 5984,16257 5974,16269 5962,16279 5949,16288 5934,16294 5904,16299 4663,16299 4663,16099"/>
   <polygon points="5904,16199 5804,16199 5804,15103 6004,15103 6004,16199 5904,16199"/>
  </g>
  <g style="stroke:none;fill:rgb(0,0,0)">
   <polygon points="7696,8984 7696,8982 7696,8980 7695,8978 7695,8976 7695,8974 7694,8972 7693,8970 7692,8968 7691,8966 7690,8964 7689,8963 7688,8961 7686,8959 7685,8958 7683,8956 7682,8955 7680,8954 7679,8953 7677,8952 7675,8951 7673,8950 7671,8950 7669,8949 7667,8949 7665,8948 7663,8948 7661,8948 7661,8948 7659,8948 7657,8948 7655,8949 7653,8949 7651,8950 7649,8950 7647,8951 7645,8952 7643,8953 7642,8954 7640,8955 7639,8956 7637,8958 7636,8959 7634,8961 7633,8963 7632,8964 7631,8966 7630,8968 7629,8970 7628,8972 7627,8974 7627,8976 7627,8978 7626,8980 7626,8982 7626,8984 7626,8984 7626,8986 7626,8988 7627,8990 7627,8992 7627,8994 7628,8996 7629,8998 7630,9000 7631,9002 7632,9004 7633,9005 7634,9007 7636,9009 7637,9010 7639,9012 7640,9013 7642,9014 7643,9015 7645,9016 7647,9017 7649,9018 7651,9018 7653,9019 7655,9019 7657,9020 7659,9020 7661,9020 7661,9020 7663,9020 7665,9020 7667,9019 7669,9019 7671,9018 7673,9018 7675,9017 7677,9016 7679,9015 7680,9014 7682,9013 7683,9012 7685,9010 7686,9009 7688,9007 7689,9005 7690,9004 7691,9002 7692,9000 7693,8998 7694,8996 7695,8994 7695,8992 7695,8990 7696,8988 7696,8986 7696,8984"/>
  </g>
  <g style="stroke:rgb(0,0,0);fill:none">
   <polyline points="7661,9020 7647,9017 7636,9009 7628,8997 7626,8984 7628,8970 7636,8958 7647,8950 7661,8948 7674,8950 7685,8958 7693,8970 7696,8984 7693,8997 7685,9009 7674,9017 7661,9020" style="fill:none"/>
  </g>
  <g style="stroke:none;fill:rgb(0,0,0)">
   <polygon points="7194,8984 7194,8982 7194,8980 7193,8978 7193,8976 7193,8974 7192,8972 7191,8970 7190,8968 7189,8966 7188,8964 7187,8963 7186,8961 7184,8959 7183,8958 7181,8956 7180,8955 7178,8954 7177,8953 7175,8952 7173,8951 7171,8950 7169,8950 7167,8949 7165,8949 7163,8948 7161,8948 7159,8948 7159,8948 7157,8948 7155,8948 7153,8949 7151,8949 7149,8950 7147,8950 7145,8951 7143,8952 7141,8953 7140,8954 7138,8955 7137,8956 7135,8958 7134,8959 7132,8961 7131,8963 7130,8964 7129,8966 7128,8968 7127,8970 7126,8972 7125,8974 7125,8976 7125,8978 7124,8980 7124,8982 7124,8984 7124,8984 7124,8986 7124,8988 7125,8990 7125,8992 7125,8994 7126,8996 7127,8998 7128,9000 7129,9002 7130,9004 7131,9005 7132,9007 7134,9009 7135,9010 7137,9012 7138,9013 7140,9014 7141,9015 7143,9016 7145,9017 7147,9018 7149,9018 7151,9019 7153,9019 7155,9020 7157,9020 7159,9020 7159,9020 7161,9020 7163,9020 7165,9019 7167,9019 7169,9018 7171,9018 7173,9017 7175,9016 7177,9015 7178,9014 7180,9013 7181,9012 7183,9010 7184,9009 7186,9007 7187,9005 7188,9004 7189,9002 7190,9000 7191,8998 7192,8996 7193,8994 7193,8992 7193,8990 7194,8988 7194,8986 7194,8984"/>
  </g>
  <g style="stroke:rgb(0,0,0);fill:none">
   <polyline points="7159,9020 7145,9017 7134,9009 7126,8997 7124,8984 7126,8970 7134,8958 7145,8950 7159,8948 7172,8950 7183,8958 7191,8970 7194,8984 7191,8997 7183,9009 7172,9017 7159,9020" style="fill:none"/>
   <polyline points="7157,8984 7577,8604" style="fill:none"/>
  </g>
  <g style="stroke:none;fill:rgb(0,0,0)">
   <text x="7170" y="9471">Ign
   </text>
  </g>
  <g style="stroke:rgb(0,0,0);fill:none">
   <polyline points="11312,9506 11312,9005 12484,9005 12484,10122" style="fill:none"/>
   <polyline points="12314,10122 12655,10122" style="fill:none"/>
   <polyline points="12383,10236 12587,10236" style="fill:none"/>
   <polyline points="12452,10349 12518,10349" style="fill:none"/>
   <polyline points="3570,11312 3911,11312" style="fill:none"/>
   <polyline points="3638,11425 3843,11425" style="fill:none"/>
   <polyline points="3708,11539 3774,11539" style="fill:none"/>
   <polyline points="3098,6330 3438,6330" style="fill:none"/>
   <polyline points="3167,6444 3370,6444" style="fill:none"/>
   <polyline points="3235,6557 3303,6557" style="fill:none"/>
   <polyline points="2830,6967 2830,5830 3268,5830 3268,6330" style="fill:none"/>
   <polyline points="3135,10855 3740,10855 3740,11312" style="fill:none"/>
  </g>
  <g style="stroke:rgb(255,0,0);fill:none">
   <polyline points="10348,9506 10348,8988 8795,8988 8795,10324 7696,10324" style="fill:none"/>
  </g>
  <g style="stroke:none;fill:rgb(0,0,0)">
   <polygon points="2671,13082 2671,13080 2671,13078 2670,13076 2670,13074 2670,13072 2669,13070 2668,13068 2667,13066 2666,13064 2665,13062 2664,13061 2663,13059 2661,13057 2660,13056 2658,13054 2657,13053 2655,13052 2654,13051 2652,13050 2650,13049 2648,13048 2646,13048 2644,13047 2642,13047 2640,13046 2638,13046 2636,13046 2636,13046 2634,13046 2632,13046 2630,13047 2628,13047 2626,13048 2624,13048 2622,13049 2620,13050 2618,13051 2617,13052 2615,13053 2614,13054 2612,13056 2611,13057 2609,13059 2608,13061 2607,13062 2606,13064 2605,13066 2604,13068 2603,13070 2602,13072 2602,13074 2602,13076 2601,13078 2601,13080 2601,13082 2601,13082 2601,13084 2601,13086 2602,13088 2602,13090 2602,13092 2603,13094 2604,13096 2605,13098 2606,13100 2607,13102 2608,13103 2609,13105 2611,13107 2612,13108 2614,13110 2615,13111 2617,13112 2618,13113 2620,13114 2622,13115 2624,13116 2626,13116 2628,13117 2630,13117 2632,13118 2634,13118 2636,13118 2636,13118 2638,13118 2640,13118 2642,13117 2644,13117 2646,13116 2648,13116 2650,13115 2652,13114 2654,13113 2655,13112 2657,13111 2658,13110 2660,13108 2661,13107 2663,13105 2664,13103 2665,13102 2666,13100 2667,13098 2668,13096 2669,13094 2670,13092 2670,13090 2670,13088 2671,13086 2671,13084 2671,13082"/>
  </g>
  <g style="stroke:rgb(0,0,0);fill:none">
   <polyline points="2636,13118 2622,13115 2611,13107 2603,13095 2601,13082 2603,13068 2611,13056 2622,13048 2636,13046 2649,13048 2660,13056 2668,13068 2671,13082 2668,13095 2660,13107 2649,13115 2636,13118" style="fill:none"/>
  </g>
  <g style="stroke:none;fill:rgb(0,0,0)">
   <polygon points="2171,13082 2171,13080 2171,13078 2170,13076 2170,13074 2170,13072 2169,13070 2168,13068 2167,13066 2166,13064 2165,13062 2164,13061 2163,13059 2161,13057 2160,13056 2158,13054 2157,13053 2155,13052 2154,13051 2152,13050 2150,13049 2148,13048 2146,13048 2144,13047 2142,13047 2140,13046 2138,13046 2136,13046 2136,13046 2134,13046 2132,13046 2130,13047 2128,13047 2126,13048 2124,13048 2122,13049 2120,13050 2118,13051 2117,13052 2115,13053 2114,13054 2112,13056 2111,13057 2109,13059 2108,13061 2107,13062 2106,13064 2105,13066 2104,13068 2103,13070 2102,13072 2102,13074 2102,13076 2101,13078 2101,13080 2101,13082 2101,13082 2101,13084 2101,13086 2102,13088 2102,13090 2102,13092 2103,13094 2104,13096 2105,13098 2106,13100 2107,13102 2108,13103 2109,13105 2111,13107 2112,13108 2114,13110 2115,13111 2117,13112 2118,13113 2120,13114 2122,13115 2124,13116 2126,13116 2128,13117 2130,13117 2132,13118 2134,13118 2136,13118 2136,13118 2138,13118 2140,13118 2142,13117 2144,13117 2146,13116 2148,13116 2150,13115 2152,13114 2154,13113 2155,13112 2157,13111 2158,13110 2160,13108 2161,13107 2163,13105 2164,13103 2165,13102 2166,13100 2167,13098 2168,13096 2169,13094 2170,13092 2170,13090 2170,13088 2171,13086 2171,13084 2171,13082"/>
  </g>
  <g style="stroke:rgb(0,0,0);fill:none">
   <polyline points="2136,13118 2122,13115 2111,13107 2103,13095 2101,13082 2103,13068 2111,13056 2122,13048 2136,13046 2149,13048 2160,13056 2168,13068 2171,13082 2168,13095 2160,13107 2149,13115 2136,13118" style="fill:none"/>
   <polyline points="2134,13082 2553,12701" style="fill:none"/>
  </g>
  <g style="stroke:none;fill:rgb(0,0,0)">
   <text x="1931" y="13678">Fan
   </text>
   <polygon points="3201,14874 3201,14872 3201,14870 3200,14868 3200,14866 3200,14864 3199,14862 3198,14860 3197,14858 3197,14857 3195,14855 3194,14853 3193,14852 3192,14850 3190,14849 3189,14847 3187,14846 3186,14845 3184,14844 3182,14842 3181,14842 3179,14841 3177,14840 3175,14839 3173,14839 3171,14839 3169,14838 3167,14838 3165,14838 3165,14838 3163,14838 3161,14838 3159,14839 3157,14839 3155,14839 3153,14840 3151,14841 3149,14842 3148,14842 3146,14844 3144,14845 3143,14846 3141,14847 3140,14849 3138,14850 3137,14852 3136,14853 3135,14855 3133,14857 3133,14858 3132,14860 3131,14862 3130,14864 3130,14866 3130,14868 3129,14870 3129,14872 3129,14874 3129,14874 3129,14876 3129,14878 3130,14880 3130,14882 3130,14884 3131,14886 3132,14888 3133,14890 3133,14891 3135,14893 3136,14895 3137,14896 3138,14898 3140,14899 3141,14901 3143,14902 3144,14903 3146,14904 3148,14906 3149,14906 3151,14907 3153,14908 3155,14909 3157,14909 3159,14909 3161,14910 3163,14910 3165,14910 3165,14910 3167,14910 3169,14910 3171,14909 3173,14909 3175,14909 3177,14908 3179,14907 3181,14906 3182,14906 3184,14904 3186,14903 3187,14902 3189,14901 3190,14899 3192,14898 3193,14896 3194,14895 3195,14893 3197,14891 3197,14890 3198,14888 3199,14886 3200,14884 3200,14882 3200,14880 3201,14878 3201,14876 3201,14874"/>
  </g>
  <g style="stroke:rgb(0,0,0);fill:none">
   <polyline points="3165,14910 3151,14907 3139,14899 3131,14887 3129,14874 3131,14860 3139,14848 3151,14840 3165,14838 3178,14840 3190,14848 3198,14860 3201,14874 3198,14887 3190,14899 3178,14907 3165,14910" style="fill:none"/>
  </g>
  <g style="stroke:none;fill:rgb(0,0,0)">
   <polygon points="2699,14874 2699,14872 2699,14870 2698,14868 2698,14866 2698,14864 2697,14862 2696,14860 2695,14858 2694,14856 2693,14854 2692,14853 2691,14851 2689,14849 2688,14848 2686,14846 2685,14845 2683,14844 2682,14843 2680,14842 2678,14841 2676,14840 2674,14840 2672,14839 2670,14839 2668,14838 2666,14838 2664,14838 2664,14838 2662,14838 2660,14838 2658,14839 2656,14839 2654,14840 2652,14840 2650,14841 2648,14842 2646,14843 2645,14844 2643,14845 2642,14846 2640,14848 2639,14849 2637,14851 2636,14853 2635,14854 2634,14856 2633,14858 2632,14860 2631,14862 2630,14864 2630,14866 2630,14868 2629,14870 2629,14872 2629,14874 2629,14874 2629,14876 2629,14878 2630,14880 2630,14882 2630,14884 2631,14886 2632,14888 2633,14890 2634,14892 2635,14894 2636,14895 2637,14897 2639,14899 2640,14900 2642,14902 2643,14903 2645,14904 2646,14905 2648,14906 2650,14907 2652,14908 2654,14908 2656,14909 2658,14909 2660,14910 2662,14910 2664,14910 2664,14910 2666,14910 2668,14910 2670,14909 2672,14909 2674,14908 2676,14908 2678,14907 2680,14906 2682,14905 2683,14904 2685,14903 2686,14902 2688,14900 2689,14899 2691,14897 2692,14895 2693,14894 2694,14892 2695,14890 2696,14888 2697,14886 2698,14884 2698,14882 2698,14880 2699,14878 2699,14876 2699,14874"/>
  </g>
  <g style="stroke:rgb(0,0,0);fill:none">
   <polyline points="2664,14910 2650,14907 2639,14899 2631,14887 2629,14874 2631,14860 2639,14848 2650,14840 2664,14838 2677,14840 2688,14848 2696,14860 2699,14874 2696,14887 2688,14899 2677,14907 2664,14910" style="fill:none"/>
   <polyline points="2662,14874 3082,14493" style="fill:none"/>
  </g>
  <g style="stroke:none;fill:rgb(0,0,0)">
   <polygon points="3015,17458 3015,17456 3015,17454 3014,17452 3014,17450 3014,17448 3013,17446 3012,17444 3011,17442 3010,17440 3009,17438 3008,17437 3007,17435 3005,17433 3004,17432 3002,17430 3001,17429 2999,17428 2998,17427 2996,17426 2994,17425 2992,17424 2990,17424 2988,17423 2986,17423 2984,17422 2982,17422 2980,17422 2980,17422 2978,17422 2976,17422 2974,17423 2972,17423 2970,17424 2968,17424 2966,17425 2964,17426 2962,17427 2961,17428 2959,17429 2958,17430 2956,17432 2955,17433 2953,17435 2952,17437 2951,17438 2950,17440 2949,17442 2948,17444 2947,17446 2946,17448 2946,17450 2946,17452 2945,17454 2945,17456 2945,17458 2945,17458 2945,17460 2945,17462 2946,17464 2946,17466 2946,17468 2947,17470 2948,17472 2949,17474 2950,17476 2951,17478 2952,17479 2953,17481 2955,17483 2956,17484 2958,17486 2959,17487 2961,17488 2962,17489 2964,17490 2966,17491 2968,17492 2970,17492 2972,17493 2974,17493 2976,17494 2978,17494 2980,17494 2980,17494 2982,17494 2984,17494 2986,17493 2988,17493 2990,17492 2992,17492 2994,17491 2996,17490 2998,17489 2999,17488 3001,17487 3002,17486 3004,17484 3005,17483 3007,17481 3008,17479 3009,17478 3010,17476 3011,17474 3012,17472 3013,17470 3014,17468 3014,17466 3014,17464 3015,17462 3015,17460 3015,17458"/>
  </g>
  <g style="stroke:rgb(0,0,0);fill:none">
   <polyline points="2980,17494 2966,17491 2955,17483 2947,17471 2945,17458 2947,17444 2955,17432 2966,17424 2980,17422 2993,17424 3004,17432 3012,17444 3015,17458 3012,17471 3004,17483 2993,17491 2980,17494" style="fill:none"/>
  </g>
  <g style="stroke:none;fill:rgb(0,0,0)">
   <polygon points="2516,17458 2516,17456 2516,17454 2515,17452 2515,17450 2515,17448 2514,17446 2513,17444 2512,17442 2512,17441 2510,17439 2509,17437 2508,17436 2507,17434 2505,17433 2504,17431 2502,17430 2501,17429 2499,17428 2497,17426 2496,17426 2494,17425 2492,17424 2490,17423 2488,17423 2486,17423 2484,17422 2482,17422 2480,17422 2480,17422 2478,17422 2476,17422 2474,17423 2472,17423 2470,17423 2468,17424 2466,17425 2464,17426 2463,17426 2461,17428 2459,17429 2458,17430 2456,17431 2455,17433 2453,17434 2452,17436 2451,17437 2450,17439 2448,17441 2448,17442 2447,17444 2446,17446 2445,17448 2445,17450 2445,17452 2444,17454 2444,17456 2444,17458 2444,17458 2444,17460 2444,17462 2445,17464 2445,17466 2445,17468 2446,17470 2447,17472 2448,17474 2448,17475 2450,17477 2451,17479 2452,17480 2453,17482 2455,17483 2456,17485 2458,17486 2459,17487 2461,17488 2463,17490 2464,17490 2466,17491 2468,17492 2470,17493 2472,17493 2474,17493 2476,17494 2478,17494 2480,17494 2480,17494 2482,17494 2484,17494 2486,17493 2488,17493 2490,17493 2492,17492 2494,17491 2496,17490 2497,17490 2499,17488 2501,17487 2502,17486 2504,17485 2505,17483 2507,17482 2508,17480 2509,17479 2510,17477 2512,17475 2512,17474 2513,17472 2514,17470 2515,17468 2515,17466 2515,17464 2516,17462 2516,17460 2516,17458"/>
  </g>
  <g style="stroke:rgb(0,0,0);fill:none">
   <polyline points="2480,17494 2466,17491 2454,17483 2446,17471 2444,17458 2446,17444 2454,17432 2466,17424 2480,17422 2493,17424 2505,17432 2513,17444 2516,17458 2513,17471 2505,17483 2493,17491 2480,17494" style="fill:none"/>
   <polyline points="2478,17458 2898,17078" style="fill:none"/>
  </g>
  <g style="stroke:rgb(255,0,0);fill:none">
   <polyline points="2134,13083 1601,13083 1601,14875 2663,14875" style="fill:none"/>
   <polyline points="2134,13083 1601,13083 1601,17459 2478,17459" style="fill:none"/>
  </g>
  <g style="stroke:none;fill:rgb(255,129,0)">
   <polygon points="6663,15103 6663,16215 6563,16215 6563,16315 6563,16315 6547,16313 6532,16310 6517,16304 6504,16295 6492,16285 6482,16273 6473,16260 6467,16245 6463,16215 6463,15103 6663,15103"/>
   <polygon points="6563,16115 14780,16115 14780,16115 14795,16116 14810,16119 14825,16125 14838,16134 14850,16144 14860,16156 14869,16169 14875,16184 14880,16215 14780,16215 14780,16315 6563,16315 6563,16215 6563,16115"/>
   <polygon points="14880,16215 14880,24131 14880,24131 14878,24146 14875,24161 14869,24176 14860,24189 14850,24201 14838,24211 14825,24220 14810,24226 14780,24231 14780,24131 14680,24131 14680,16215 14780,16215 14880,16215"/>
   <polygon points="14780,24131 14780,24231 14280,24231 14280,24031 14780,24031 14780,24131"/>
  </g>
  <g style="stroke:none;fill:rgb(0,0,0)">
   <text x="2487" y="15451">A/C
   </text>
   <text x="2302" y="18044">Heat
   </text>
  </g>
  <g style="stroke:rgb(255,0,0);fill:none">
   <polyline points="3969,15864 3969,14874 3164,14874" style="fill:none"/>
  </g>
  <g style="stroke:rgb(0,0,0);fill:none">
   <polyline points="4700,15447 5039,15447" style="fill:none"/>
   <polyline points="4767,15560 4971,15560" style="fill:none"/>
   <polyline points="4836,15674 4904,15674" style="fill:none"/>
   <polyline points="4431,15865 4431,14947 4869,14947 4869,15447" style="fill:none"/>
  </g>
  <g style="stroke:none;fill:rgb(255,129,0)">
   <polygon points="1774,24233 1274,24233 1274,24233 1258,24231 1243,24228 1228,24222 1215,24213 1203,24203 1193,24191 1184,24178 1178,24163 1174,24133 1274,24133 1274,24033 1774,24033 1774,24233"/>
   <polygon points="1174,24133 1174,18800 1174,18800 1175,18784 1178,18769 1184,18754 1193,18741 1203,18729 1215,18719 1228,18710 1243,18704 1274,18700 1274,18800 1374,18800 1374,24133 1274,24133 1174,24133"/>
   <polygon points="1274,18800 1274,18700 3736,18700 3736,18900 1274,18900 1274,18800"/>
  </g>
  <g style="stroke:none;fill:rgb(0,0,0)">
   <text x="3889" y="19578">K4
   </text>
  </g>
  <g style="stroke:rgb(0,0,0);fill:none">
   <polyline points="4700,18047 5039,18047" style="fill:none"/>
   <polyline points="4767,18161 4971,18161" style="fill:none"/>
   <polyline points="4836,18274 4904,18274" style="fill:none"/>
   <polyline points="4431,18467 4431,17547 4869,17547 4869,18047" style="fill:none"/>
  </g>
  <g style="stroke:none;fill:rgb(255,129,0)">
   <polygon points="4663,18700 5920,18700 5920,18700 5935,18701 5950,18704 5965,18710 5978,18719 5990,18729 6000,18741 6009,18754 6015,18769 6020,18800 5920,18800 5920,18900 4663,18900 4663,18700"/>
   <polygon points="6020,18800 6020,18801 5920,18801 5920,18901 5920,18901 5904,18899 5889,18896 5874,18890 5861,18881 5849,18871 5839,18859 5830,18846 5824,18831 5820,18801 5820,18800 5920,18800 6020,18800"/>
   <polygon points="5920,18801 5920,18701 7176,18701 7176,18901 5920,18901 5920,18801"/>
   <polygon points="9365,18701 14780,18701 14780,18701 14795,18702 14810,18705 14825,18711 14838,18720 14850,18730 14860,18742 14869,18755 14875,18770 14880,18801 14780,18801 14780,18901 9365,18901 9365,18701"/>
   <polygon points="14880,18801 14880,24131 14880,24131 14878,24146 14875,24161 14869,24176 14860,24189 14850,24201 14838,24211 14825,24220 14810,24226 14780,24231 14780,24131 14680,24131 14680,18801 14780,18801 14880,18801"/>
   <polygon points="14780,24131 14780,24231 14280,24231 14280,24031 14780,24031 14780,24131"/>
  </g>
  <g style="stroke:rgb(255,0,0);fill:none">
   <polyline points="2979,17459 3969,17459 3969,18466" style="fill:none"/>
  </g>
  <g style="stroke:none;fill:rgb(0,0,0)">
   <polygon points="7732,10323 7732,10321 7732,10319 7731,10317 7731,10315 7731,10313 7730,10311 7729,10309 7728,10307 7727,10305 7726,10304 7725,10302 7724,10301 7722,10299 7721,10298 7719,10296 7718,10295 7716,10294 7715,10293 7713,10292 7711,10291 7709,10290 7707,10289 7705,10289 7703,10289 7701,10288 7699,10288 7697,10288 7697,10288 7695,10288 7693,10288 7691,10289 7689,10289 7687,10289 7685,10290 7683,10291 7681,10292 7679,10293 7678,10294 7676,10295 7675,10296 7673,10298 7672,10299 7670,10301 7669,10302 7668,10304 7667,10305 7666,10307 7665,10309 7664,10311 7663,10313 7663,10315 7663,10317 7662,10319 7662,10321 7662,10323 7662,10323 7662,10325 7662,10327 7663,10329 7663,10331 7663,10333 7664,10335 7665,10337 7666,10339 7667,10341 7668,10342 7669,10344 7670,10345 7672,10347 7673,10348 7675,10350 7676,10351 7678,10352 7679,10353 7681,10354 7683,10355 7685,10356 7687,10357 7689,10357 7691,10357 7693,10358 7695,10358 7697,10358 7697,10358 7699,10358 7701,10358 7703,10357 7705,10357 7707,10357 7709,10356 7711,10355 7713,10354 7715,10353 7716,10352 7718,10351 7719,10350 7721,10348 7722,10347 7724,10345 7725,10344 7726,10342 7727,10341 7728,10339 7729,10337 7730,10335 7731,10333 7731,10331 7731,10329 7732,10327 7732,10325 7732,10323"/>
  </g>
  <g style="stroke:rgb(0,0,0);fill:none">
   <polyline points="7697,10358 7683,10355 7672,10347 7664,10336 7662,10323 7664,10309 7672,10298 7683,10290 7697,10288 7710,10290 7721,10298 7729,10309 7732,10323 7729,10336 7721,10347 7710,10355 7697,10358" style="fill:none"/>
  </g>
  <g style="stroke:none;fill:rgb(0,0,0)">
   <polygon points="7230,10323 7230,10321 7230,10319 7229,10317 7229,10315 7229,10313 7228,10311 7227,10309 7226,10307 7225,10305 7224,10304 7223,10302 7222,10301 7220,10299 7219,10298 7217,10296 7216,10295 7214,10294 7213,10293 7211,10292 7209,10291 7207,10290 7205,10289 7203,10289 7201,10289 7199,10288 7197,10288 7195,10288 7195,10288 7193,10288 7191,10288 7189,10289 7187,10289 7185,10289 7183,10290 7181,10291 7179,10292 7177,10293 7176,10294 7174,10295 7173,10296 7171,10298 7170,10299 7168,10301 7167,10302 7166,10304 7165,10305 7164,10307 7163,10309 7162,10311 7161,10313 7161,10315 7161,10317 7160,10319 7160,10321 7160,10323 7160,10323 7160,10325 7160,10327 7161,10329 7161,10331 7161,10333 7162,10335 7163,10337 7164,10339 7165,10341 7166,10342 7167,10344 7168,10345 7170,10347 7171,10348 7173,10350 7174,10351 7176,10352 7177,10353 7179,10354 7181,10355 7183,10356 7185,10357 7187,10357 7189,10357 7191,10358 7193,10358 7195,10358 7195,10358 7197,10358 7199,10358 7201,10357 7203,10357 7205,10357 7207,10356 7209,10355 7211,10354 7213,10353 7214,10352 7216,10351 7217,10350 7219,10348 7220,10347 7222,10345 7223,10344 7224,10342 7225,10341 7226,10339 7227,10337 7228,10335 7229,10333 7229,10331 7229,10329 7230,10327 7230,10325 7230,10323"/>
  </g>
  <g style="stroke:rgb(0,0,0);fill:none">
   <polyline points="7195,10358 7181,10355 7170,10347 7162,10336 7160,10323 7162,10309 7170,10298 7181,10290 7195,10288 7208,10290 7219,10298 7227,10309 7230,10323 7227,10336 7219,10347 7208,10355 7195,10358" style="fill:none"/>
   <polyline points="7193,10323 7613,9943" style="fill:none"/>
  </g>
  <g style="stroke:none;fill:rgb(0,0,0)">
   <text x="6906" y="10847">Timer
   </text>
  </g>
  <g style="stroke:rgb(255,0,0);fill:none">
   <polyline points="7194,10323 4779,10323 4779,13082 2635,13082" style="fill:none"/>
  </g>
  <g style="stroke:none;fill:rgb(0,0,0)">
   <text x="13600" y="2857">120/144V
   </text>
  </g>
  <g style="stroke:none;fill:rgb(255,129,0)">
   <polygon points="12671,2577 13420,2577 13420,2777 12671,2777 12671,2577"/>
   <polygon points="12679,3260 12730,3260 12730,3360 12679,3360 12679,3260"/>
   <polygon points="12781,3260 12832,3260 12832,3360 12781,3360 12781,3260"/>
   <polygon points="12883,3260 12934,3260 12934,3360 12883,3360 12883,3260"/>
   <polygon points="12985,3260 13036,3260 13036,3360 12985,3360 12985,3260"/>
   <polygon points="13087,3260 13138,3260 13138,3360 13087,3360 13087,3260"/>
   <polygon points="13189,3260 13240,3260 13240,3360 13189,3360 13189,3260"/>
   <polygon points="13291,3260 13342,3260 13342,3360 13291,3360 13291,3260"/>
   <polygon points="13393,3260 13428,3260 13428,3360 13393,3360 13393,3260"/>
  </g>
  <g style="stroke:none;fill:rgb(0,0,0)">
   <text x="13626" y="4127">12V +
   </text>
  </g>
  <g style="stroke:rgb(0,0,0);fill:none">
   <polyline points="12679,4575 13428,4575" style="fill:none"/>
  </g>
  <g style="stroke:none;fill:rgb(0,0,0)">
   <text x="13626" y="4762">Chassis
   </text>
  </g>
  <g style="stroke:rgb(255,0,0);fill:none">
   <polyline points="7158,8985 6805,8985 6805,9360" style="fill:none"/>
  </g>
  <g style="stroke:rgb(0,0,0);fill:none">
   <polyline points="6599,9360 6804,9565 7012,9360 6599,9360" style="fill:none"/>
   <polyline points="6599,9565 7012,9565" style="fill:none"/>
  </g>
  <g style="stroke:rgb(255,0,0);fill:none">
   <polyline points="6805,9565 6805,10323 7194,10323" style="fill:none"/>
   <polyline points="12680,3942 13429,3942" style="fill:none"/>
  </g>
  <g style="stroke:none;fill:rgb(0,0,0)">
   <text x="13600" y="3492">Shunt
   </text>
  </g>
  <g style="stroke:rgb(0,0,0);fill:none">
   <polyline points="6688,4948 6893,5153 6688,5361 6688,4948" style="fill:none"/>
   <polyline points="6893,4948 6893,5361" style="fill:none"/>
  </g>
  <g style="stroke:none;fill:rgb(255,129,0)">
   <polygon points="3953,7350 3902,7350 3902,7250 3953,7250 3953,7350"/>
   <polygon points="3851,7350 3800,7350 3800,7250 3851,7250 3851,7350"/>
   <polygon points="3749,7350 3698,7350 3698,7250 3749,7250 3749,7350"/>
   <polygon points="3647,7350 3627,7350 3627,7350 3619,7349 3611,7347 3604,7344 3597,7340 3591,7335 3586,7329 3582,7322 3579,7315 3577,7300 3627,7300 3627,7250 3647,7250 3647,7350"/>
   <polygon points="3627,7300 3577,7300 3577,7269 3677,7269 3677,7300 3627,7300"/>
   <polygon points="3577,7218 3577,7167 3677,7167 3677,7218 3577,7218"/>
   <polygon points="3577,7116 3577,7065 3677,7065 3677,7116 3577,7116"/>
   <polygon points="3577,7014 3577,6963 3677,6963 3677,7014 3577,7014"/>
   <polygon points="3577,6912 3577,6861 3677,6861 3677,6912 3577,6912"/>
   <polygon points="3577,6810 3577,6759 3677,6759 3677,6810 3577,6810"/>
   <polygon points="3577,6708 3577,6657 3677,6657 3677,6708 3577,6708"/>
   <polygon points="3577,6606 3577,6555 3677,6555 3677,6606 3577,6606"/>
   <polygon points="3577,6504 3577,6453 3677,6453 3677,6504 3577,6504"/>
   <polygon points="3577,6402 3577,6351 3677,6351 3677,6402 3577,6402"/>
   <polygon points="3577,6300 3577,6249 3677,6249 3677,6300 3577,6300"/>
   <polygon points="3577,6198 3577,6147 3677,6147 3677,6198 3577,6198"/>
   <polygon points="3577,6096 3577,6045 3677,6045 3677,6096 3577,6096"/>
   <polygon points="3577,5994 3577,5943 3677,5943 3677,5994 3577,5994"/>
   <polygon points="3577,5892 3577,5841 3677,5841 3677,5892 3577,5892"/>
   <polygon points="3577,5790 3577,5739 3677,5739 3677,5790 3577,5790"/>
   <polygon points="3577,5688 3577,5637 3677,5637 3677,5688 3577,5688"/>
   <polygon points="3577,5586 3577,5535 3677,5535 3677,5586 3577,5586"/>
   <polygon points="3577,5484 3577,5433 3677,5433 3677,5484 3577,5484"/>
   <polygon points="3577,5382 3577,5331 3677,5331 3677,5382 3577,5382"/>
   <polygon points="3577,5280 3577,5229 3677,5229 3677,5280 3577,5280"/>
   <polygon points="3577,5178 3577,5154 3577,5154 3577,5146 3579,5138 3582,5131 3586,5124 3591,5118 3597,5113 3604,5109 3611,5106 3627,5104 3627,5154 3677,5154 3677,5178 3577,5178"/>
   <polygon points="3627,5154 3627,5104 3654,5104 3654,5204 3627,5204 3627,5154"/>
   <polygon points="3705,5104 3756,5104 3756,5204 3705,5204 3705,5104"/>
   <polygon points="3807,5104 3858,5104 3858,5204 3807,5204 3807,5104"/>
   <polygon points="3909,5104 3960,5104 3960,5204 3909,5204 3909,5104"/>
   <polygon points="4011,5104 4062,5104 4062,5204 4011,5204 4011,5104"/>
   <polygon points="4113,5104 4164,5104 4164,5204 4113,5204 4113,5104"/>
   <polygon points="4215,5104 4266,5104 4266,5204 4215,5204 4215,5104"/>
   <polygon points="4317,5104 4368,5104 4368,5204 4317,5204 4317,5104"/>
   <polygon points="4419,5104 4470,5104 4470,5204 4419,5204 4419,5104"/>
   <polygon points="4521,5104 4572,5104 4572,5204 4521,5204 4521,5104"/>
   <polygon points="4623,5104 4674,5104 4674,5204 4623,5204 4623,5104"/>
   <polygon points="4725,5104 4776,5104 4776,5204 4725,5204 4725,5104"/>
   <polygon points="4827,5104 4878,5104 4878,5204 4827,5204 4827,5104"/>
   <polygon points="4929,5104 4980,5104 4980,5204 4929,5204 4929,5104"/>
   <polygon points="5031,5104 5082,5104 5082,5204 5031,5204 5031,5104"/>
   <polygon points="5133,5104 5184,5104 5184,5204 5133,5204 5133,5104"/>
   <polygon points="5235,5104 5286,5104 5286,5204 5235,5204 5235,5104"/>
   <polygon points="5337,5104 5388,5104 5388,5204 5337,5204 5337,5104"/>
   <polygon points="5439,5104 5490,5104 5490,5204 5439,5204 5439,5104"/>
   <polygon points="5541,5104 5592,5104 5592,5204 5541,5204 5541,5104"/>
   <polygon points="5643,5104 5694,5104 5694,5204 5643,5204 5643,5104"/>
   <polygon points="5745,5104 5796,5104 5796,5204 5745,5204 5745,5104"/>
   <polygon points="5847,5104 5898,5104 5898,5204 5847,5204 5847,5104"/>
   <polygon points="5949,5104 6000,5104 6000,5204 5949,5204 5949,5104"/>
   <polygon points="6051,5104 6102,5104 6102,5204 6051,5204 6051,5104"/>
   <polygon points="6153,5104 6204,5104 6204,5204 6153,5204 6153,5104"/>
   <polygon points="6255,5104 6306,5104 6306,5204 6255,5204 6255,5104"/>
   <polygon points="6357,5104 6408,5104 6408,5204 6357,5204 6357,5104"/>
   <polygon points="6459,5104 6510,5104 6510,5204 6459,5204 6459,5104"/>
   <polygon points="6561,5104 6612,5104 6612,5204 6561,5204 6561,5104"/>
   <polygon points="6663,5104 6688,5104 6688,5204 6663,5204 6663,5104"/>
  </g>
  <g style="stroke:none;fill:rgb(0,0,0)">
   <text x="6350" y="5820">LED1
   </text>
  </g>
  <g style="stroke:none;fill:rgb(255,129,0)">
   <polygon points="6605,7250 6656,7250 6656,7350 6605,7350 6605,7250"/>
   <polygon points="6707,7250 6758,7250 6758,7350 6707,7350 6707,7250"/>
   <polygon points="6809,7250 6860,7250 6860,7350 6809,7350 6809,7250"/>
   <polygon points="6911,7250 6962,7250 6962,7350 6911,7350 6911,7250"/>
   <polygon points="7013,7250 7064,7250 7064,7350 7013,7350 7013,7250"/>
   <polygon points="7115,7250 7166,7250 7166,7350 7115,7350 7115,7250"/>
   <polygon points="7217,7250 7268,7250 7268,7350 7217,7350 7217,7250"/>
   <polygon points="7319,7250 7370,7250 7370,7350 7319,7350 7319,7250"/>
   <polygon points="7421,7250 7472,7250 7472,7350 7421,7350 7421,7250"/>
   <polygon points="7523,7250 7574,7250 7574,7350 7523,7350 7523,7250"/>
   <polygon points="7625,7250 7676,7250 7676,7350 7625,7350 7625,7250"/>
   <polygon points="7674,7297 7674,7246 7774,7246 7774,7297 7674,7297"/>
   <polygon points="7674,7195 7674,7144 7774,7144 7774,7195 7674,7195"/>
   <polygon points="7674,7093 7674,7042 7774,7042 7774,7093 7674,7093"/>
   <polygon points="7674,6991 7674,6940 7774,6940 7774,6991 7674,6991"/>
   <polygon points="7674,6889 7674,6838 7774,6838 7774,6889 7674,6889"/>
   <polygon points="7674,6787 7674,6736 7774,6736 7774,6787 7674,6787"/>
   <polygon points="7674,6685 7674,6634 7774,6634 7774,6685 7674,6685"/>
   <polygon points="7674,6583 7674,6532 7774,6532 7774,6583 7674,6583"/>
   <polygon points="7674,6481 7674,6430 7774,6430 7774,6481 7674,6481"/>
   <polygon points="7674,6379 7674,6328 7774,6328 7774,6379 7674,6379"/>
   <polygon points="7674,6277 7674,6226 7774,6226 7774,6277 7674,6277"/>
   <polygon points="7674,6175 7674,6124 7774,6124 7774,6175 7674,6175"/>
   <polygon points="7674,6073 7674,6022 7774,6022 7774,6073 7674,6073"/>
   <polygon points="7674,5971 7674,5920 7774,5920 7774,5971 7674,5971"/>
   <polygon points="7674,5869 7674,5818 7774,5818 7774,5869 7674,5869"/>
   <polygon points="7674,5767 7674,5716 7774,5716 7774,5767 7674,5767"/>
   <polygon points="7674,5665 7674,5614 7774,5614 7774,5665 7674,5665"/>
   <polygon points="7674,5563 7674,5512 7774,5512 7774,5563 7674,5563"/>
   <polygon points="7674,5461 7674,5410 7774,5410 7774,5461 7674,5461"/>
   <polygon points="7674,5359 7674,5308 7774,5308 7774,5359 7674,5359"/>
   <polygon points="7674,5257 7674,5206 7774,5206 7774,5257 7674,5257"/>
   <polygon points="7674,5155 7674,5154 7724,5154 7724,5104 7724,5104 7731,5104 7739,5106 7746,5109 7753,5113 7759,5118 7764,5124 7768,5131 7771,5138 7774,5154 7774,5155 7674,5155"/>
   <polygon points="7724,5154 7724,5204 7674,5204 7674,5104 7724,5104 7724,5154"/>
   <polygon points="7623,5204 7572,5204 7572,5104 7623,5104 7623,5204"/>
   <polygon points="7521,5204 7470,5204 7470,5104 7521,5104 7521,5204"/>
   <polygon points="7419,5204 7368,5204 7368,5104 7419,5104 7419,5204"/>
   <polygon points="7317,5204 7266,5204 7266,5104 7317,5104 7317,5204"/>
   <polygon points="7215,5204 7164,5204 7164,5104 7215,5104 7215,5204"/>
   <polygon points="7113,5204 7062,5204 7062,5104 7113,5104 7113,5204"/>
   <polygon points="7011,5204 6960,5204 6960,5104 7011,5104 7011,5204"/>
   <polygon points="6909,5204 6893,5204 6893,5104 6909,5104 6909,5204"/>
  </g>
  <g style="stroke:rgb(0,0,0);fill:none">
   <polyline points="6794,4761 6440,4761 6440,4052 7149,4052 7149,4761 6794,4761" style="fill:none"/>
  </g>
  <g style="stroke:rgb(255,0,0);fill:none">
   <polyline points="6794,4168 6502,4644" style="fill:none"/>
   <polyline points="6794,4168 7086,4644" style="fill:none"/>
   <polyline points="6502,4644 7086,4644" style="fill:none"/>
   <polyline points="6795,4259 6582,4605" style="fill:none"/>
   <polyline points="6795,4259 7007,4605" style="fill:none"/>
   <polyline points="6582,4605 7007,4605" style="fill:none"/>
  </g>
 </g>
 <g style="font-family:Arial;font-size:635;font-weight:700">
  <g style="stroke:none;fill:rgb(0,0,0)">
   <text x="6376" y="21240">+
   </text>
   <text x="8943" y="21240">-
   </text>
  </g>
  <g style="stroke:none;fill:rgb(255,129,0)">
   <polygon points="1774,24233 1274,24233 1274,24233 1258,24231 1243,24228 1228,24222 1215,24213 1203,24203 1193,24191 1184,24178 1178,24163 1174,24133 1274,24133 1274,24033 1774,24033 1774,24233"/>
   <polygon points="1174,24133 1174,12351 1174,12351 1175,12335 1178,12320 1184,12305 1193,12292 1203,12280 1215,12270 1228,12261 1243,12255 1274,12251 1274,12351 1374,12351 1374,24133 1274,24133 1174,24133"/>
   <polygon points="1274,12351 1274,12251 9693,12251 9693,12451 1274,12451 1274,12351"/>
  </g>
  <g style="stroke:rgb(255,0,0);fill:none">
   <polyline points="2771,8992 4806,8992 4806,8985 6805,8985" style="fill:none"/>
  </g>
 </g>
 <g style="font-family:Arial;font-size:494;font-weight:400">
  <g style="stroke:none;fill:rgb(0,0,0)">
   <text x="2910" y="9551">Relay1
   </text>
  </g>
  <g style="stroke:rgb(255,0,0);fill:none">
   <polyline points="2269,8991 1634,8991 1634,6465 2368,6465 2368,6966" style="fill:none"/>
  </g>
  <g style="stroke:none;fill:rgb(0,0,0)">
   <polygon points="2807,8991 2807,8989 2807,8987 2806,8985 2806,8983 2806,8981 2805,8979 2804,8977 2803,8975 2802,8973 2801,8972 2800,8970 2799,8969 2797,8967 2796,8966 2794,8964 2793,8963 2791,8962 2790,8961 2788,8960 2786,8959 2784,8958 2782,8957 2780,8957 2778,8957 2776,8956 2774,8956 2772,8956 2772,8956 2770,8956 2768,8956 2766,8957 2764,8957 2762,8957 2760,8958 2758,8959 2756,8960 2754,8961 2753,8962 2751,8963 2750,8964 2748,8966 2747,8967 2745,8969 2744,8970 2743,8972 2742,8973 2741,8975 2740,8977 2739,8979 2738,8981 2738,8983 2738,8985 2737,8987 2737,8989 2737,8991 2737,8991 2737,8993 2737,8995 2738,8997 2738,8999 2738,9001 2739,9003 2740,9005 2741,9007 2742,9009 2743,9010 2744,9012 2745,9013 2747,9015 2748,9016 2750,9018 2751,9019 2753,9020 2754,9021 2756,9022 2758,9023 2760,9024 2762,9025 2764,9025 2766,9025 2768,9026 2770,9026 2772,9026 2772,9026 2774,9026 2776,9026 2778,9025 2780,9025 2782,9025 2784,9024 2786,9023 2788,9022 2790,9021 2791,9020 2793,9019 2794,9018 2796,9016 2797,9015 2799,9013 2800,9012 2801,9010 2802,9009 2803,9007 2804,9005 2805,9003 2806,9001 2806,8999 2806,8997 2807,8995 2807,8993 2807,8991"/>
  </g>
  <g style="stroke:rgb(0,0,0);fill:none">
   <polyline points="2772,9026 2758,9023 2747,9015 2739,9004 2737,8991 2739,8977 2747,8966 2758,8958 2772,8956 2785,8958 2796,8966 2804,8977 2807,8991 2804,9004 2796,9015 2785,9023 2772,9026" style="fill:none"/>
  </g>
  <g style="stroke:none;fill:rgb(0,0,0)">
   <polygon points="2305,8991 2305,8989 2305,8987 2304,8985 2304,8983 2304,8981 2303,8979 2302,8977 2301,8975 2300,8973 2299,8972 2298,8970 2297,8969 2295,8967 2294,8966 2292,8964 2291,8963 2289,8962 2288,8961 2286,8960 2284,8959 2282,8958 2280,8957 2278,8957 2276,8957 2274,8956 2272,8956 2270,8956 2270,8956 2268,8956 2266,8956 2264,8957 2262,8957 2260,8957 2258,8958 2256,8959 2254,8960 2252,8961 2251,8962 2249,8963 2248,8964 2246,8966 2245,8967 2243,8969 2242,8970 2241,8972 2240,8973 2239,8975 2238,8977 2237,8979 2236,8981 2236,8983 2236,8985 2235,8987 2235,8989 2235,8991 2235,8991 2235,8993 2235,8995 2236,8997 2236,8999 2236,9001 2237,9003 2238,9005 2239,9007 2240,9009 2241,9010 2242,9012 2243,9013 2245,9015 2246,9016 2248,9018 2249,9019 2251,9020 2252,9021 2254,9022 2256,9023 2258,9024 2260,9025 2262,9025 2264,9025 2266,9026 2268,9026 2270,9026 2270,9026 2272,9026 2274,9026 2276,9025 2278,9025 2280,9025 2282,9024 2284,9023 2286,9022 2288,9021 2289,9020 2291,9019 2292,9018 2294,9016 2295,9015 2297,9013 2298,9012 2299,9010 2300,9009 2301,9007 2302,9005 2303,9003 2304,9001 2304,8999 2304,8997 2305,8995 2305,8993 2305,8991"/>
  </g>
  <g style="stroke:rgb(0,0,0);fill:none">
   <polyline points="2270,9026 2256,9023 2245,9015 2237,9004 2235,8991 2237,8977 2245,8966 2256,8958 2270,8956 2283,8958 2294,8966 2302,8977 2305,8991 2302,9004 2294,9015 2283,9023 2270,9026" style="fill:none"/>
   <polyline points="2268,8991 2688,8611" style="fill:none"/>
   <polyline points="2107,9115 2281,9115 2364,9115 2398,9115 2429,9115 2499,9115 2596,9144 2629,9209 2596,9276 2499,9311 2596,9341 2629,9409 2596,9476 2499,9507 2596,9535 2629,9599 2596,9663 2499,9692 2596,9721 2629,9787 2596,9852 2499,9882 2429,9882 2398,9882 2364,9882 2281,9882 2107,9882" style="fill:none"/>
   <polyline points="2728,9108 2728,9882" style="fill:none"/>
   <polyline points="2793,9108 2793,9881" style="fill:none"/>
  </g>
  <g style="stroke:none;fill:rgb(179,179,179)">
   <polygon points="7176,18203 9365,18203 9365,19400 7176,19400 7176,18203"/>
  </g>
  <g style="stroke:rgb(0,0,0);fill:none">
   <polyline points="8270,19400 7176,19400 7176,18203 9365,18203 9365,19400 8270,19400" style="fill:none"/>
  </g>
 </g>
 <g style="font-family:Arial;font-size:494;font-weight:700">
  <g style="stroke:none;fill:rgb(0,0,0)">
   <text x="7488" y="18970">Heater
   </text>
  </g>
  <g style="stroke:none;fill:rgb(0,174,0)">
   <polygon points="6179,20671 9367,20671 9367,22309 6179,22309 6179,20671"/>
  </g>
  <g style="stroke:rgb(0,0,0);fill:none">
   <polyline points="7773,22309 6179,22309 6179,20671 9367,20671 9367,22309 7773,22309" style="fill:none"/>
  </g>
  <g style="stroke:none;fill:rgb(0,0,0)">
   <text x="6826" y="21669">Charger
   </text>
  </g>
  <g style="stroke:rgb(0,0,0);fill:none">
   <polyline points="8005,24661 3092,24661 3092,23607 12919,23607 12919,24661 8005,24661" style="fill:none"/>
  </g>
  <g style="stroke:none;fill:rgb(0,0,0)">
   <text x="6932" y="24314">120/144V
   </text>
  </g>
  <g style="stroke:rgb(0,0,0);fill:none">
   <polyline points="13407,24131 13426,24061 13475,24004 13545,23966 13624,23952 13754,24008 13842,24132 13931,24256 14061,24313 14141,24297 14211,24256 14261,24198 14280,24131" style="fill:none"/>
   <polyline points="13843,24354 13407,24354 13407,23909 14280,23909 14280,24354 13843,24354" style="fill:none"/>
   <polyline points="1774,24133 1793,24062 1844,24005 1914,23967 1993,23953 2122,24009 2211,24133 2299,24257 2429,24315 2509,24299 2579,24258 2628,24200 2647,24133" style="fill:none"/>
   <polyline points="2210,24356 1774,24356 1774,23910 2647,23910 2647,24356 2210,24356" style="fill:none"/>
  </g>
  <g style="stroke:none;fill:rgb(0,0,0)">
   <polygon points="4485,18746 4485,18745 4485,18744 4485,18743 4485,18742 4485,18741 4484,18740 4484,18739 4484,18738 4483,18737 4483,18736 4483,18735 4482,18734 4482,18733 4481,18733 4481,18732 4480,18731 4480,18730 4479,18729 4478,18728 4478,18728 4477,18727 4476,18726 4476,18726 4475,18725 4474,18724 4473,18724 4472,18723 4471,18723 4471,18722 4470,18722 4469,18721 4468,18721 4467,18721 4466,18720 4465,18720 4464,18720 4463,18719 4462,18719 4461,18719 4460,18719 4459,18719 4458,18719 4458,18719 4457,18719 4456,18719 4455,18719 4454,18719 4453,18719 4452,18720 4451,18720 4450,18720 4449,18721 4448,18721 4447,18721 4446,18722 4445,18722 4445,18723 4444,18723 4443,18724 4442,18724 4441,18725 4440,18726 4440,18726 4439,18727 4438,18728 4438,18728 4437,18729 4436,18730 4436,18731 4435,18732 4435,18733 4434,18733 4434,18734 4433,18735 4433,18736 4433,18737 4432,18738 4432,18739 4432,18740 4431,18741 4431,18742 4431,18743 4431,18744 4431,18745 4431,18746 4431,18746 4431,18747 4431,18748 4431,18749 4431,18750 4431,18751 4432,18752 4432,18753 4432,18754 4433,18755 4433,18756 4433,18757 4434,18758 4434,18759 4435,18759 4435,18760 4436,18761 4436,18762 4437,18763 4438,18764 4438,18764 4439,18765 4440,18766 4440,18766 4441,18767 4442,18768 4443,18768 4444,18769 4445,18769 4445,18770 4446,18770 4447,18771 4448,18771 4449,18771 4450,18772 4451,18772 4452,18772 4453,18773 4454,18773 4455,18773 4456,18773 4457,18773 4458,18773 4458,18773 4459,18773 4460,18773 4461,18773 4462,18773 4463,18773 4464,18772 4465,18772 4466,18772 4467,18771 4468,18771 4469,18771 4470,18770 4471,18770 4471,18769 4472,18769 4473,18768 4474,18768 4475,18767 4476,18766 4476,18766 4477,18765 4478,18764 4478,18764 4479,18763 4480,18762 4480,18761 4481,18760 4481,18759 4482,18759 4482,18758 4483,18757 4483,18756 4483,18755 4484,18754 4484,18753 4484,18752 4485,18751 4485,18750 4485,18749 4485,18748 4485,18747 4485,18746"/>
  </g>
  <g style="stroke:rgb(0,0,0);fill:none">
   <polyline points="4458,18773 4447,18770 4439,18764 4433,18756 4431,18746 4433,18735 4439,18727 4447,18721 4458,18719 4468,18721 4476,18727 4482,18735 4485,18746 4482,18756 4476,18764 4468,18770 4458,18773" style="fill:none"/>
   <polyline points="3967,18746 4432,18746" style="fill:none"/>
   <polyline points="4199,19135 3736,19135 3736,18465 4663,18465 4663,19135 4199,19135" style="fill:none"/>
   <polyline points="4200,18747 4200,18576" style="fill:none"/>
   <polyline points="3915,18946 3736,18946" style="fill:none"/>
   <polyline points="4485,18945 4663,18945" style="fill:none"/>
  </g>
  <g style="stroke:none;fill:rgb(0,0,0)">
   <polygon points="4485,18946 4485,18945 4485,18944 4485,18943 4485,18942 4485,18941 4484,18940 4484,18939 4484,18938 4483,18937 4483,18936 4483,18935 4482,18934 4482,18933 4481,18933 4481,18932 4480,18931 4480,18930 4479,18929 4478,18928 4478,18928 4477,18927 4476,18926 4476,18926 4475,18925 4474,18924 4473,18924 4472,18923 4471,18923 4471,18922 4470,18922 4469,18921 4468,18921 4467,18921 4466,18920 4465,18920 4464,18920 4463,18919 4462,18919 4461,18919 4460,18919 4459,18919 4458,18919 4458,18919 4457,18919 4456,18919 4455,18919 4454,18919 4453,18919 4452,18920 4451,18920 4450,18920 4449,18921 4448,18921 4447,18921 4446,18922 4445,18922 4445,18923 4444,18923 4443,18924 4442,18924 4441,18925 4440,18926 4440,18926 4439,18927 4438,18928 4438,18928 4437,18929 4436,18930 4436,18931 4435,18932 4435,18933 4434,18933 4434,18934 4433,18935 4433,18936 4433,18937 4432,18938 4432,18939 4432,18940 4431,18941 4431,18942 4431,18943 4431,18944 4431,18945 4431,18946 4431,18946 4431,18947 4431,18948 4431,18949 4431,18950 4431,18951 4432,18952 4432,18953 4432,18954 4433,18955 4433,18956 4433,18957 4434,18958 4434,18959 4435,18959 4435,18960 4436,18961 4436,18962 4437,18963 4438,18964 4438,18964 4439,18965 4440,18966 4440,18966 4441,18967 4442,18968 4443,18968 4444,18969 4445,18969 4445,18970 4446,18970 4447,18971 4448,18971 4449,18971 4450,18972 4451,18972 4452,18972 4453,18973 4454,18973 4455,18973 4456,18973 4457,18973 4458,18973 4458,18973 4459,18973 4460,18973 4461,18973 4462,18973 4463,18973 4464,18972 4465,18972 4466,18972 4467,18971 4468,18971 4469,18971 4470,18970 4471,18970 4471,18969 4472,18969 4473,18968 4474,18968 4475,18967 4476,18966 4476,18966 4477,18965 4478,18964 4478,18964 4479,18963 4480,18962 4480,18961 4481,18960 4481,18959 4482,18959 4482,18958 4483,18957 4483,18956 4483,18955 4484,18954 4484,18953 4484,18952 4485,18951 4485,18950 4485,18949 4485,18948 4485,18947 4485,18946"/>
  </g>
  <g style="stroke:rgb(0,0,0);fill:none">
   <polyline points="4458,18973 4447,18970 4439,18964 4433,18956 4431,18946 4433,18935 4439,18927 4447,18921 4458,18919 4468,18921 4476,18927 4482,18935 4485,18946 4482,18956 4476,18964 4468,18970 4458,18973" style="fill:none"/>
  </g>
  <g style="stroke:none;fill:rgb(0,0,0)">
   <polygon points="3967,18746 3967,18745 3967,18744 3967,18743 3967,18742 3967,18741 3966,18740 3966,18739 3966,18738 3965,18737 3965,18736 3965,18735 3964,18734 3964,18733 3963,18732 3963,18731 3962,18730 3962,18730 3961,18729 3960,18728 3960,18727 3959,18727 3958,18726 3958,18725 3957,18725 3956,18724 3955,18723 3954,18723 3953,18722 3953,18722 3952,18721 3951,18721 3950,18721 3949,18720 3948,18720 3947,18720 3946,18719 3945,18719 3944,18719 3943,18719 3942,18719 3941,18719 3941,18719 3940,18719 3939,18719 3938,18719 3937,18719 3936,18719 3935,18720 3934,18720 3933,18720 3932,18721 3931,18721 3930,18721 3929,18722 3929,18722 3928,18723 3927,18723 3926,18724 3925,18725 3924,18725 3924,18726 3923,18727 3922,18727 3922,18728 3921,18729 3920,18730 3920,18730 3919,18731 3919,18732 3918,18733 3918,18734 3917,18735 3917,18736 3917,18737 3916,18738 3916,18739 3916,18740 3915,18741 3915,18742 3915,18743 3915,18744 3915,18745 3915,18746 3915,18746 3915,18747 3915,18748 3915,18749 3915,18750 3915,18751 3916,18752 3916,18753 3916,18754 3917,18755 3917,18756 3917,18757 3918,18758 3918,18759 3919,18760 3919,18761 3920,18762 3920,18762 3921,18763 3922,18764 3922,18765 3923,18765 3924,18766 3924,18767 3925,18767 3926,18768 3927,18769 3928,18769 3929,18770 3929,18770 3930,18771 3931,18771 3932,18771 3933,18772 3934,18772 3935,18772 3936,18773 3937,18773 3938,18773 3939,18773 3940,18773 3941,18773 3941,18773 3942,18773 3943,18773 3944,18773 3945,18773 3946,18773 3947,18772 3948,18772 3949,18772 3950,18771 3951,18771 3952,18771 3953,18770 3953,18770 3954,18769 3955,18769 3956,18768 3957,18767 3958,18767 3958,18766 3959,18765 3960,18765 3960,18764 3961,18763 3962,18762 3962,18762 3963,18761 3963,18760 3964,18759 3964,18758 3965,18757 3965,18756 3965,18755 3966,18754 3966,18753 3966,18752 3967,18751 3967,18750 3967,18749 3967,18748 3967,18747 3967,18746"/>
  </g>
  <g style="stroke:rgb(0,0,0);fill:none">
   <polyline points="3941,18773 3931,18770 3922,18764 3917,18756 3915,18746 3917,18735 3922,18727 3931,18721 3941,18719 3950,18721 3959,18727 3964,18735 3967,18746 3964,18756 3959,18764 3950,18770 3941,18773" style="fill:none"/>
  </g>
  <g style="stroke:none;fill:rgb(0,0,0)">
   <polygon points="3967,18946 3967,18945 3967,18944 3967,18943 3967,18942 3967,18941 3966,18940 3966,18939 3966,18938 3965,18937 3965,18936 3965,18935 3964,18934 3964,18933 3963,18932 3963,18931 3962,18930 3962,18930 3961,18929 3960,18928 3960,18927 3959,18927 3958,18926 3958,18925 3957,18925 3956,18924 3955,18923 3954,18923 3953,18922 3953,18922 3952,18921 3951,18921 3950,18921 3949,18920 3948,18920 3947,18920 3946,18919 3945,18919 3944,18919 3943,18919 3942,18919 3941,18919 3941,18919 3940,18919 3939,18919 3938,18919 3937,18919 3936,18919 3935,18920 3934,18920 3933,18920 3932,18921 3931,18921 3930,18921 3929,18922 3929,18922 3928,18923 3927,18923 3926,18924 3925,18925 3924,18925 3924,18926 3923,18927 3922,18927 3922,18928 3921,18929 3920,18930 3920,18930 3919,18931 3919,18932 3918,18933 3918,18934 3917,18935 3917,18936 3917,18937 3916,18938 3916,18939 3916,18940 3915,18941 3915,18942 3915,18943 3915,18944 3915,18945 3915,18946 3915,18946 3915,18947 3915,18948 3915,18949 3915,18950 3915,18951 3916,18952 3916,18953 3916,18954 3917,18955 3917,18956 3917,18957 3918,18958 3918,18959 3919,18960 3919,18961 3920,18962 3920,18962 3921,18963 3922,18964 3922,18965 3923,18965 3924,18966 3924,18967 3925,18967 3926,18968 3927,18969 3928,18969 3929,18970 3929,18970 3930,18971 3931,18971 3932,18971 3933,18972 3934,18972 3935,18972 3936,18973 3937,18973 3938,18973 3939,18973 3940,18973 3941,18973 3941,18973 3942,18973 3943,18973 3944,18973 3945,18973 3946,18973 3947,18972 3948,18972 3949,18972 3950,18971 3951,18971 3952,18971 3953,18970 3953,18970 3954,18969 3955,18969 3956,18968 3957,18967 3958,18967 3958,18966 3959,18965 3960,18965 3960,18964 3961,18963 3962,18962 3962,18962 3963,18961 3963,18960 3964,18959 3964,18958 3965,18957 3965,18956 3965,18955 3966,18954 3966,18953 3966,18952 3967,18951 3967,18950 3967,18949 3967,18948 3967,18947 3967,18946"/>
  </g>
  <g style="stroke:rgb(0,0,0);fill:none">
   <polyline points="3941,18973 3931,18970 3922,18964 3917,18956 3915,18946 3917,18935 3922,18927 3931,18921 3941,18919 3950,18921 3959,18927 3964,18935 3967,18946 3964,18956 3959,18964 3950,18970 3941,18973" style="fill:none"/>
  </g>
  <g style="stroke:none;fill:rgb(0,0,0)">
   <polygon points="4485,16145 4485,16144 4485,16143 4485,16142 4485,16141 4485,16140 4484,16139 4484,16138 4484,16137 4483,16136 4483,16135 4483,16134 4482,16133 4482,16132 4481,16132 4481,16131 4480,16130 4480,16129 4479,16128 4478,16127 4478,16127 4477,16126 4476,16125 4476,16125 4475,16124 4474,16123 4473,16123 4472,16122 4471,16122 4471,16121 4470,16121 4469,16120 4468,16120 4467,16120 4466,16119 4465,16119 4464,16119 4463,16118 4462,16118 4461,16118 4460,16118 4459,16118 4458,16118 4458,16118 4457,16118 4456,16118 4455,16118 4454,16118 4453,16118 4452,16119 4451,16119 4450,16119 4449,16120 4448,16120 4447,16120 4446,16121 4445,16121 4445,16122 4444,16122 4443,16123 4442,16123 4441,16124 4440,16125 4440,16125 4439,16126 4438,16127 4438,16127 4437,16128 4436,16129 4436,16130 4435,16131 4435,16132 4434,16132 4434,16133 4433,16134 4433,16135 4433,16136 4432,16137 4432,16138 4432,16139 4431,16140 4431,16141 4431,16142 4431,16143 4431,16144 4431,16145 4431,16145 4431,16146 4431,16147 4431,16148 4431,16149 4431,16150 4432,16151 4432,16152 4432,16153 4433,16154 4433,16155 4433,16156 4434,16157 4434,16158 4435,16158 4435,16159 4436,16160 4436,16161 4437,16162 4438,16163 4438,16163 4439,16164 4440,16165 4440,16165 4441,16166 4442,16167 4443,16167 4444,16168 4445,16168 4445,16169 4446,16169 4447,16170 4448,16170 4449,16170 4450,16171 4451,16171 4452,16171 4453,16172 4454,16172 4455,16172 4456,16172 4457,16172 4458,16172 4458,16172 4459,16172 4460,16172 4461,16172 4462,16172 4463,16172 4464,16171 4465,16171 4466,16171 4467,16170 4468,16170 4469,16170 4470,16169 4471,16169 4471,16168 4472,16168 4473,16167 4474,16167 4475,16166 4476,16165 4476,16165 4477,16164 4478,16163 4478,16163 4479,16162 4480,16161 4480,16160 4481,16159 4481,16158 4482,16158 4482,16157 4483,16156 4483,16155 4483,16154 4484,16153 4484,16152 4484,16151 4485,16150 4485,16149 4485,16148 4485,16147 4485,16146 4485,16145"/>
  </g>
  <g style="stroke:rgb(0,0,0);fill:none">
   <polyline points="4458,16172 4447,16169 4439,16163 4433,16155 4431,16145 4433,16134 4439,16126 4447,16120 4458,16118 4468,16120 4476,16126 4482,16134 4485,16145 4482,16155 4476,16163 4468,16169 4458,16172" style="fill:none"/>
   <polyline points="3967,16145 4432,16145" style="fill:none"/>
   <polyline points="4199,16535 3736,16535 3736,15864 4663,15864 4663,16535 4199,16535" style="fill:none"/>
   <polyline points="4200,16146 4200,15976" style="fill:none"/>
   <polyline points="3915,16347 3736,16347" style="fill:none"/>
   <polyline points="4485,16346 4663,16346" style="fill:none"/>
  </g>
  <g style="stroke:none;fill:rgb(0,0,0)">
   <polygon points="4485,16347 4485,16346 4485,16345 4485,16344 4485,16343 4485,16342 4484,16341 4484,16340 4484,16339 4483,16338 4483,16337 4483,16336 4482,16335 4482,16335 4481,16334 4481,16333 4480,16332 4479,16331 4479,16330 4478,16330 4477,16329 4477,16328 4476,16328 4475,16327 4474,16326 4474,16326 4473,16325 4472,16325 4471,16324 4470,16324 4469,16323 4468,16323 4467,16323 4466,16322 4465,16322 4464,16322 4463,16321 4462,16321 4461,16321 4460,16321 4459,16321 4458,16321 4458,16321 4457,16321 4456,16321 4455,16321 4454,16321 4453,16321 4452,16322 4451,16322 4450,16322 4449,16323 4448,16323 4447,16323 4446,16324 4445,16324 4444,16325 4443,16325 4442,16326 4442,16326 4441,16327 4440,16328 4439,16328 4439,16329 4438,16330 4437,16330 4437,16331 4436,16332 4435,16333 4435,16334 4434,16335 4434,16335 4433,16336 4433,16337 4433,16338 4432,16339 4432,16340 4432,16341 4431,16342 4431,16343 4431,16344 4431,16345 4431,16346 4431,16347 4431,16347 4431,16348 4431,16349 4431,16350 4431,16351 4431,16352 4432,16353 4432,16354 4432,16355 4433,16356 4433,16357 4433,16358 4434,16359 4434,16359 4435,16360 4435,16361 4436,16362 4437,16363 4437,16364 4438,16364 4439,16365 4439,16366 4440,16366 4441,16367 4442,16368 4442,16368 4443,16369 4444,16369 4445,16370 4446,16370 4447,16371 4448,16371 4449,16371 4450,16372 4451,16372 4452,16372 4453,16373 4454,16373 4455,16373 4456,16373 4457,16373 4458,16373 4458,16373 4459,16373 4460,16373 4461,16373 4462,16373 4463,16373 4464,16372 4465,16372 4466,16372 4467,16371 4468,16371 4469,16371 4470,16370 4471,16370 4472,16369 4473,16369 4474,16368 4474,16368 4475,16367 4476,16366 4477,16366 4477,16365 4478,16364 4479,16364 4479,16363 4480,16362 4481,16361 4481,16360 4482,16359 4482,16359 4483,16358 4483,16357 4483,16356 4484,16355 4484,16354 4484,16353 4485,16352 4485,16351 4485,16350 4485,16349 4485,16348 4485,16347"/>
  </g>
  <g style="stroke:rgb(0,0,0);fill:none">
   <polyline points="4458,16373 4447,16370 4439,16365 4433,16356 4431,16347 4433,16337 4439,16328 4447,16323 4458,16321 4468,16323 4476,16328 4482,16337 4485,16347 4482,16356 4476,16365 4468,16370 4458,16373" style="fill:none"/>
  </g>
  <g style="stroke:none;fill:rgb(0,0,0)">
   <polygon points="3967,16145 3967,16144 3967,16143 3967,16142 3967,16141 3967,16140 3966,16139 3966,16138 3966,16137 3965,16136 3965,16135 3965,16134 3964,16133 3964,16132 3963,16131 3963,16130 3962,16129 3962,16129 3961,16128 3960,16127 3960,16126 3959,16126 3958,16125 3958,16124 3957,16124 3956,16123 3955,16122 3954,16122 3953,16121 3953,16121 3952,16120 3951,16120 3950,16120 3949,16119 3948,16119 3947,16119 3946,16118 3945,16118 3944,16118 3943,16118 3942,16118 3941,16118 3941,16118 3940,16118 3939,16118 3938,16118 3937,16118 3936,16118 3935,16119 3934,16119 3933,16119 3932,16120 3931,16120 3930,16120 3929,16121 3929,16121 3928,16122 3927,16122 3926,16123 3925,16124 3924,16124 3924,16125 3923,16126 3922,16126 3922,16127 3921,16128 3920,16129 3920,16129 3919,16130 3919,16131 3918,16132 3918,16133 3917,16134 3917,16135 3917,16136 3916,16137 3916,16138 3916,16139 3915,16140 3915,16141 3915,16142 3915,16143 3915,16144 3915,16145 3915,16145 3915,16146 3915,16147 3915,16148 3915,16149 3915,16150 3916,16151 3916,16152 3916,16153 3917,16154 3917,16155 3917,16156 3918,16157 3918,16158 3919,16159 3919,16160 3920,16161 3920,16161 3921,16162 3922,16163 3922,16164 3923,16164 3924,16165 3924,16166 3925,16166 3926,16167 3927,16168 3928,16168 3929,16169 3929,16169 3930,16170 3931,16170 3932,16170 3933,16171 3934,16171 3935,16171 3936,16172 3937,16172 3938,16172 3939,16172 3940,16172 3941,16172 3941,16172 3942,16172 3943,16172 3944,16172 3945,16172 3946,16172 3947,16171 3948,16171 3949,16171 3950,16170 3951,16170 3952,16170 3953,16169 3953,16169 3954,16168 3955,16168 3956,16167 3957,16166 3958,16166 3958,16165 3959,16164 3960,16164 3960,16163 3961,16162 3962,16161 3962,16161 3963,16160 3963,16159 3964,16158 3964,16157 3965,16156 3965,16155 3965,16154 3966,16153 3966,16152 3966,16151 3967,16150 3967,16149 3967,16148 3967,16147 3967,16146 3967,16145"/>
  </g>
  <g style="stroke:rgb(0,0,0);fill:none">
   <polyline points="3941,16172 3931,16169 3922,16163 3917,16155 3915,16145 3917,16134 3922,16126 3931,16120 3941,16118 3950,16120 3959,16126 3964,16134 3967,16145 3964,16155 3959,16163 3950,16169 3941,16172" style="fill:none"/>
  </g>
  <g style="stroke:none;fill:rgb(0,0,0)">
   <polygon points="3967,16347 3967,16346 3967,16345 3967,16344 3967,16343 3967,16342 3966,16341 3966,16340 3966,16339 3965,16338 3965,16337 3965,16336 3964,16335 3964,16334 3963,16333 3963,16333 3962,16332 3961,16331 3961,16330 3960,16329 3959,16329 3959,16328 3958,16327 3957,16327 3956,16326 3955,16325 3955,16325 3954,16324 3953,16324 3952,16323 3951,16323 3950,16323 3949,16322 3948,16322 3947,16322 3946,16321 3945,16321 3944,16321 3943,16321 3942,16321 3941,16321 3941,16321 3940,16321 3939,16321 3938,16321 3937,16321 3936,16321 3935,16322 3934,16322 3933,16322 3932,16323 3931,16323 3930,16323 3929,16324 3928,16324 3927,16325 3927,16325 3926,16326 3925,16327 3924,16327 3923,16328 3923,16329 3922,16329 3921,16330 3921,16331 3920,16332 3919,16333 3919,16333 3918,16334 3918,16335 3917,16336 3917,16337 3917,16338 3916,16339 3916,16340 3916,16341 3915,16342 3915,16343 3915,16344 3915,16345 3915,16346 3915,16347 3915,16347 3915,16348 3915,16349 3915,16350 3915,16351 3915,16352 3916,16353 3916,16354 3916,16355 3917,16356 3917,16357 3917,16358 3918,16359 3918,16360 3919,16361 3919,16361 3920,16362 3921,16363 3921,16364 3922,16365 3923,16365 3923,16366 3924,16367 3925,16367 3926,16368 3927,16369 3927,16369 3928,16370 3929,16370 3930,16371 3931,16371 3932,16371 3933,16372 3934,16372 3935,16372 3936,16373 3937,16373 3938,16373 3939,16373 3940,16373 3941,16373 3941,16373 3942,16373 3943,16373 3944,16373 3945,16373 3946,16373 3947,16372 3948,16372 3949,16372 3950,16371 3951,16371 3952,16371 3953,16370 3954,16370 3955,16369 3955,16369 3956,16368 3957,16367 3958,16367 3959,16366 3959,16365 3960,16365 3961,16364 3961,16363 3962,16362 3963,16361 3963,16361 3964,16360 3964,16359 3965,16358 3965,16357 3965,16356 3966,16355 3966,16354 3966,16353 3967,16352 3967,16351 3967,16350 3967,16349 3967,16348 3967,16347"/>
  </g>
  <g style="stroke:rgb(0,0,0);fill:none">
   <polyline points="3941,16373 3931,16370 3922,16365 3917,16356 3915,16347 3917,16337 3922,16328 3931,16323 3941,16321 3950,16323 3959,16328 3964,16337 3967,16347 3964,16356 3959,16365 3950,16370 3941,16373" style="fill:none"/>
  </g>
  <g style="stroke:none;fill:rgb(192,192,192)">
   <polygon points="9693,11621 12080,11621 12080,13082 9693,13082 9693,11621"/>
  </g>
  <g style="stroke:rgb(0,0,0);fill:none">
   <polyline points="10886,13082 9693,13082 9693,11621 12080,11621 12080,13082 10886,13082" style="fill:none"/>
  </g>
  <g style="stroke:none;fill:rgb(0,0,0)">
   <text x="10089" y="12249">DC/DC
   </text>
   <text x="9710" y="12804">Converter
   </text>
   <polygon points="2883,7247 2883,7246 2883,7245 2883,7244 2883,7243 2883,7242 2882,7241 2882,7240 2882,7239 2881,7238 2881,7237 2881,7236 2880,7235 2880,7234 2879,7233 2879,7233 2878,7232 2877,7231 2877,7230 2876,7229 2875,7229 2875,7228 2874,7227 2873,7227 2872,7226 2871,7225 2871,7225 2870,7224 2869,7224 2868,7223 2867,7223 2866,7223 2865,7222 2864,7222 2863,7222 2862,7221 2861,7221 2860,7221 2859,7221 2858,7221 2857,7221 2857,7221 2856,7221 2855,7221 2854,7221 2853,7221 2852,7221 2851,7222 2850,7222 2849,7222 2848,7223 2847,7223 2846,7223 2845,7224 2844,7224 2843,7225 2843,7225 2842,7226 2841,7227 2840,7227 2839,7228 2839,7229 2838,7229 2837,7230 2837,7231 2836,7232 2835,7233 2835,7233 2834,7234 2834,7235 2833,7236 2833,7237 2833,7238 2832,7239 2832,7240 2832,7241 2831,7242 2831,7243 2831,7244 2831,7245 2831,7246 2831,7247 2831,7247 2831,7248 2831,7249 2831,7250 2831,7251 2831,7252 2832,7253 2832,7254 2832,7255 2833,7256 2833,7257 2833,7258 2834,7259 2834,7260 2835,7261 2835,7261 2836,7262 2837,7263 2837,7264 2838,7265 2839,7265 2839,7266 2840,7267 2841,7267 2842,7268 2843,7269 2843,7269 2844,7270 2845,7270 2846,7271 2847,7271 2848,7271 2849,7272 2850,7272 2851,7272 2852,7273 2853,7273 2854,7273 2855,7273 2856,7273 2857,7273 2857,7273 2858,7273 2859,7273 2860,7273 2861,7273 2862,7273 2863,7272 2864,7272 2865,7272 2866,7271 2867,7271 2868,7271 2869,7270 2870,7270 2871,7269 2871,7269 2872,7268 2873,7267 2874,7267 2875,7266 2875,7265 2876,7265 2877,7264 2877,7263 2878,7262 2879,7261 2879,7261 2880,7260 2880,7259 2881,7258 2881,7257 2881,7256 2882,7255 2882,7254 2882,7253 2883,7252 2883,7251 2883,7250 2883,7249 2883,7248 2883,7247"/>
  </g>
  <g style="stroke:rgb(0,0,0);fill:none">
   <polyline points="2857,7273 2847,7270 2838,7265 2833,7256 2831,7247 2833,7237 2838,7228 2847,7223 2857,7221 2866,7223 2875,7228 2880,7237 2883,7247 2880,7256 2875,7265 2866,7270 2857,7273" style="fill:none"/>
   <polyline points="2367,7248 2831,7248" style="fill:none"/>
   <polyline points="2598,7637 2134,7637 2134,6965 3063,6965 3063,7637 2598,7637" style="fill:none"/>
   <polyline points="2598,7249 2598,7077" style="fill:none"/>
   <polyline points="2314,7449 2134,7449" style="fill:none"/>
   <polyline points="2883,7447 3063,7447" style="fill:none"/>
  </g>
  <g style="stroke:none;fill:rgb(0,0,0)">
   <polygon points="2883,7448 2883,7447 2883,7446 2883,7445 2883,7444 2883,7443 2882,7442 2882,7441 2882,7440 2881,7439 2881,7438 2881,7437 2880,7436 2880,7435 2879,7434 2879,7433 2878,7432 2878,7432 2877,7431 2876,7430 2876,7429 2875,7429 2874,7428 2874,7427 2873,7427 2872,7426 2871,7425 2870,7425 2869,7424 2869,7424 2868,7423 2867,7423 2866,7423 2865,7422 2864,7422 2863,7422 2862,7421 2861,7421 2860,7421 2859,7421 2858,7421 2857,7421 2857,7421 2856,7421 2855,7421 2854,7421 2853,7421 2852,7421 2851,7422 2850,7422 2849,7422 2848,7423 2847,7423 2846,7423 2845,7424 2845,7424 2844,7425 2843,7425 2842,7426 2841,7427 2840,7427 2840,7428 2839,7429 2838,7429 2838,7430 2837,7431 2836,7432 2836,7432 2835,7433 2835,7434 2834,7435 2834,7436 2833,7437 2833,7438 2833,7439 2832,7440 2832,7441 2832,7442 2831,7443 2831,7444 2831,7445 2831,7446 2831,7447 2831,7448 2831,7448 2831,7449 2831,7450 2831,7451 2831,7452 2831,7453 2832,7454 2832,7455 2832,7456 2833,7457 2833,7458 2833,7459 2834,7460 2834,7461 2835,7462 2835,7463 2836,7464 2836,7464 2837,7465 2838,7466 2838,7467 2839,7467 2840,7468 2840,7469 2841,7469 2842,7470 2843,7471 2844,7471 2845,7472 2845,7472 2846,7473 2847,7473 2848,7473 2849,7474 2850,7474 2851,7474 2852,7475 2853,7475 2854,7475 2855,7475 2856,7475 2857,7475 2857,7475 2858,7475 2859,7475 2860,7475 2861,7475 2862,7475 2863,7474 2864,7474 2865,7474 2866,7473 2867,7473 2868,7473 2869,7472 2869,7472 2870,7471 2871,7471 2872,7470 2873,7469 2874,7469 2874,7468 2875,7467 2876,7467 2876,7466 2877,7465 2878,7464 2878,7464 2879,7463 2879,7462 2880,7461 2880,7460 2881,7459 2881,7458 2881,7457 2882,7456 2882,7455 2882,7454 2883,7453 2883,7452 2883,7451 2883,7450 2883,7449 2883,7448"/>
  </g>
  <g style="stroke:rgb(0,0,0);fill:none">
   <polyline points="2857,7475 2847,7472 2838,7466 2833,7458 2831,7448 2833,7437 2838,7429 2847,7423 2857,7421 2866,7423 2875,7429 2880,7437 2883,7448 2880,7458 2875,7466 2866,7472 2857,7475" style="fill:none"/>
  </g>
  <g style="stroke:none;fill:rgb(0,0,0)">
   <polygon points="2367,7247 2367,7246 2367,7245 2367,7244 2367,7243 2367,7242 2366,7241 2366,7240 2366,7239 2365,7238 2365,7237 2365,7236 2364,7235 2364,7235 2363,7234 2363,7233 2362,7232 2361,7231 2361,7230 2360,7230 2359,7229 2359,7228 2358,7228 2357,7227 2356,7226 2356,7226 2355,7225 2354,7225 2353,7224 2352,7224 2351,7223 2350,7223 2349,7223 2348,7222 2347,7222 2346,7222 2345,7221 2344,7221 2343,7221 2342,7221 2341,7221 2340,7221 2340,7221 2339,7221 2338,7221 2337,7221 2336,7221 2335,7221 2334,7222 2333,7222 2332,7222 2331,7223 2330,7223 2329,7223 2328,7224 2327,7224 2326,7225 2325,7225 2324,7226 2324,7226 2323,7227 2322,7228 2321,7228 2321,7229 2320,7230 2319,7230 2319,7231 2318,7232 2317,7233 2317,7234 2316,7235 2316,7235 2315,7236 2315,7237 2315,7238 2314,7239 2314,7240 2314,7241 2313,7242 2313,7243 2313,7244 2313,7245 2313,7246 2313,7247 2313,7247 2313,7248 2313,7249 2313,7250 2313,7251 2313,7252 2314,7253 2314,7254 2314,7255 2315,7256 2315,7257 2315,7258 2316,7259 2316,7259 2317,7260 2317,7261 2318,7262 2319,7263 2319,7264 2320,7264 2321,7265 2321,7266 2322,7266 2323,7267 2324,7268 2324,7268 2325,7269 2326,7269 2327,7270 2328,7270 2329,7271 2330,7271 2331,7271 2332,7272 2333,7272 2334,7272 2335,7273 2336,7273 2337,7273 2338,7273 2339,7273 2340,7273 2340,7273 2341,7273 2342,7273 2343,7273 2344,7273 2345,7273 2346,7272 2347,7272 2348,7272 2349,7271 2350,7271 2351,7271 2352,7270 2353,7270 2354,7269 2355,7269 2356,7268 2356,7268 2357,7267 2358,7266 2359,7266 2359,7265 2360,7264 2361,7264 2361,7263 2362,7262 2363,7261 2363,7260 2364,7259 2364,7259 2365,7258 2365,7257 2365,7256 2366,7255 2366,7254 2366,7253 2367,7252 2367,7251 2367,7250 2367,7249 2367,7248 2367,7247"/>
  </g>
  <g style="stroke:rgb(0,0,0);fill:none">
   <polyline points="2340,7273 2329,7270 2321,7265 2315,7256 2313,7247 2315,7237 2321,7228 2329,7223 2340,7221 2350,7223 2358,7228 2364,7237 2367,7247 2364,7256 2358,7265 2350,7270 2340,7273" style="fill:none"/>
  </g>
  <g style="stroke:none;fill:rgb(0,0,0)">
   <polygon points="2367,7448 2367,7447 2367,7446 2367,7445 2367,7444 2367,7443 2366,7442 2366,7441 2366,7440 2365,7439 2365,7438 2365,7437 2364,7436 2364,7435 2363,7435 2363,7434 2362,7433 2362,7432 2361,7431 2360,7430 2360,7430 2359,7429 2358,7428 2358,7428 2357,7427 2356,7426 2355,7426 2354,7425 2353,7425 2353,7424 2352,7424 2351,7423 2350,7423 2349,7423 2348,7422 2347,7422 2346,7422 2345,7421 2344,7421 2343,7421 2342,7421 2341,7421 2340,7421 2340,7421 2339,7421 2338,7421 2337,7421 2336,7421 2335,7421 2334,7422 2333,7422 2332,7422 2331,7423 2330,7423 2329,7423 2328,7424 2327,7424 2327,7425 2326,7425 2325,7426 2324,7426 2323,7427 2322,7428 2322,7428 2321,7429 2320,7430 2320,7430 2319,7431 2318,7432 2318,7433 2317,7434 2317,7435 2316,7435 2316,7436 2315,7437 2315,7438 2315,7439 2314,7440 2314,7441 2314,7442 2313,7443 2313,7444 2313,7445 2313,7446 2313,7447 2313,7448 2313,7448 2313,7449 2313,7450 2313,7451 2313,7452 2313,7453 2314,7454 2314,7455 2314,7456 2315,7457 2315,7458 2315,7459 2316,7460 2316,7461 2317,7461 2317,7462 2318,7463 2318,7464 2319,7465 2320,7466 2320,7466 2321,7467 2322,7468 2322,7468 2323,7469 2324,7470 2325,7470 2326,7471 2327,7471 2327,7472 2328,7472 2329,7473 2330,7473 2331,7473 2332,7474 2333,7474 2334,7474 2335,7475 2336,7475 2337,7475 2338,7475 2339,7475 2340,7475 2340,7475 2341,7475 2342,7475 2343,7475 2344,7475 2345,7475 2346,7474 2347,7474 2348,7474 2349,7473 2350,7473 2351,7473 2352,7472 2353,7472 2353,7471 2354,7471 2355,7470 2356,7470 2357,7469 2358,7468 2358,7468 2359,7467 2360,7466 2360,7466 2361,7465 2362,7464 2362,7463 2363,7462 2363,7461 2364,7461 2364,7460 2365,7459 2365,7458 2365,7457 2366,7456 2366,7455 2366,7454 2367,7453 2367,7452 2367,7451 2367,7450 2367,7449 2367,7448"/>
  </g>
  <g style="stroke:rgb(0,0,0);fill:none">
   <polyline points="2340,7475 2329,7472 2321,7466 2315,7458 2313,7448 2315,7437 2321,7429 2329,7423 2340,7421 2350,7423 2358,7429 2364,7437 2367,7448 2364,7458 2358,7466 2350,7472 2340,7475" style="fill:none"/>
  </g>
  <g style="stroke:none;fill:rgb(0,174,0)">
   <polygon points="3953,6600 6605,6600 6605,8000 3953,8000 3953,6600"/>
  </g>
  <g style="stroke:rgb(0,0,0);fill:none">
   <polyline points="5279,8000 3953,8000 3953,6600 6605,6600 6605,8000 5279,8000" style="fill:none"/>
  </g>
  <g style="stroke:none;fill:rgb(0,0,0)">
   <text x="4101" y="7460">Controller
   </text>
   <polygon points="12598,7247 12598,7246 12598,7245 12598,7244 12598,7243 12598,7242 12597,7241 12597,7240 12597,7239 12596,7238 12596,7237 12596,7236 12595,7235 12595,7234 12594,7233 12594,7233 12593,7232 12592,7231 12592,7230 12591,7229 12590,7229 12590,7228 12589,7227 12588,7227 12587,7226 12586,7225 12586,7225 12585,7224 12584,7224 12583,7223 12582,7223 12581,7223 12580,7222 12579,7222 12578,7222 12577,7221 12576,7221 12575,7221 12574,7221 12573,7221 12572,7221 12572,7221 12571,7221 12570,7221 12569,7221 12568,7221 12567,7221 12566,7222 12565,7222 12564,7222 12563,7223 12562,7223 12561,7223 12560,7224 12559,7224 12558,7225 12558,7225 12557,7226 12556,7227 12555,7227 12554,7228 12554,7229 12553,7229 12552,7230 12552,7231 12551,7232 12550,7233 12550,7233 12549,7234 12549,7235 12548,7236 12548,7237 12548,7238 12547,7239 12547,7240 12547,7241 12546,7242 12546,7243 12546,7244 12546,7245 12546,7246 12546,7247 12546,7247 12546,7248 12546,7249 12546,7250 12546,7251 12546,7252 12547,7253 12547,7254 12547,7255 12548,7256 12548,7257 12548,7258 12549,7259 12549,7260 12550,7261 12550,7261 12551,7262 12552,7263 12552,7264 12553,7265 12554,7265 12554,7266 12555,7267 12556,7267 12557,7268 12558,7269 12558,7269 12559,7270 12560,7270 12561,7271 12562,7271 12563,7271 12564,7272 12565,7272 12566,7272 12567,7273 12568,7273 12569,7273 12570,7273 12571,7273 12572,7273 12572,7273 12573,7273 12574,7273 12575,7273 12576,7273 12577,7273 12578,7272 12579,7272 12580,7272 12581,7271 12582,7271 12583,7271 12584,7270 12585,7270 12586,7269 12586,7269 12587,7268 12588,7267 12589,7267 12590,7266 12590,7265 12591,7265 12592,7264 12592,7263 12593,7262 12594,7261 12594,7261 12595,7260 12595,7259 12596,7258 12596,7257 12596,7256 12597,7255 12597,7254 12597,7253 12598,7252 12598,7251 12598,7250 12598,7249 12598,7248 12598,7247"/>
  </g>
  <g style="stroke:rgb(0,0,0);fill:none">
   <polyline points="12572,7273 12562,7270 12553,7265 12548,7256 12546,7247 12548,7237 12553,7228 12562,7223 12572,7221 12581,7223 12590,7228 12595,7237 12598,7247 12595,7256 12590,7265 12581,7270 12572,7273" style="fill:none"/>
   <polyline points="12079,7248 12547,7248" style="fill:none"/>
   <polyline points="12314,7637 11849,7637 11849,6965 12779,6965 12779,7637 12314,7637" style="fill:none"/>
   <polyline points="12314,7249 12314,7077" style="fill:none"/>
   <polyline points="12027,7449 11849,7449" style="fill:none"/>
   <polyline points="12598,7447 12779,7447" style="fill:none"/>
  </g>
  <g style="stroke:none;fill:rgb(0,0,0)">
   <polygon points="12598,7448 12598,7447 12598,7446 12598,7445 12598,7444 12598,7443 12597,7442 12597,7441 12597,7440 12596,7439 12596,7438 12596,7437 12595,7436 12595,7435 12594,7434 12594,7433 12593,7432 12593,7432 12592,7431 12591,7430 12591,7429 12590,7429 12589,7428 12589,7427 12588,7427 12587,7426 12586,7425 12585,7425 12584,7424 12584,7424 12583,7423 12582,7423 12581,7423 12580,7422 12579,7422 12578,7422 12577,7421 12576,7421 12575,7421 12574,7421 12573,7421 12572,7421 12572,7421 12571,7421 12570,7421 12569,7421 12568,7421 12567,7421 12566,7422 12565,7422 12564,7422 12563,7423 12562,7423 12561,7423 12560,7424 12560,7424 12559,7425 12558,7425 12557,7426 12556,7427 12555,7427 12555,7428 12554,7429 12553,7429 12553,7430 12552,7431 12551,7432 12551,7432 12550,7433 12550,7434 12549,7435 12549,7436 12548,7437 12548,7438 12548,7439 12547,7440 12547,7441 12547,7442 12546,7443 12546,7444 12546,7445 12546,7446 12546,7447 12546,7448 12546,7448 12546,7449 12546,7450 12546,7451 12546,7452 12546,7453 12547,7454 12547,7455 12547,7456 12548,7457 12548,7458 12548,7459 12549,7460 12549,7461 12550,7462 12550,7463 12551,7464 12551,7464 12552,7465 12553,7466 12553,7467 12554,7467 12555,7468 12555,7469 12556,7469 12557,7470 12558,7471 12559,7471 12560,7472 12560,7472 12561,7473 12562,7473 12563,7473 12564,7474 12565,7474 12566,7474 12567,7475 12568,7475 12569,7475 12570,7475 12571,7475 12572,7475 12572,7475 12573,7475 12574,7475 12575,7475 12576,7475 12577,7475 12578,7474 12579,7474 12580,7474 12581,7473 12582,7473 12583,7473 12584,7472 12584,7472 12585,7471 12586,7471 12587,7470 12588,7469 12589,7469 12589,7468 12590,7467 12591,7467 12591,7466 12592,7465 12593,7464 12593,7464 12594,7463 12594,7462 12595,7461 12595,7460 12596,7459 12596,7458 12596,7457 12597,7456 12597,7455 12597,7454 12598,7453 12598,7452 12598,7451 12598,7450 12598,7449 12598,7448"/>
  </g>
  <g style="stroke:rgb(0,0,0);fill:none">
   <polyline points="12572,7475 12562,7472 12553,7466 12548,7458 12546,7448 12548,7437 12553,7429 12562,7423 12572,7421 12581,7423 12590,7429 12595,7437 12598,7448 12595,7458 12590,7466 12581,7472 12572,7475" style="fill:none"/>
  </g>
  <g style="stroke:none;fill:rgb(0,0,0)">
   <polygon points="12079,7247 12079,7246 12079,7245 12079,7244 12079,7243 12079,7242 12078,7241 12078,7240 12078,7239 12077,7238 12077,7237 12077,7236 12076,7235 12076,7234 12075,7233 12075,7233 12074,7232 12073,7231 12073,7230 12072,7229 12071,7229 12071,7228 12070,7227 12069,7227 12068,7226 12067,7225 12067,7225 12066,7224 12065,7224 12064,7223 12063,7223 12062,7223 12061,7222 12060,7222 12059,7222 12058,7221 12057,7221 12056,7221 12055,7221 12054,7221 12053,7221 12053,7221 12052,7221 12051,7221 12050,7221 12049,7221 12048,7221 12047,7222 12046,7222 12045,7222 12044,7223 12043,7223 12042,7223 12041,7224 12040,7224 12039,7225 12039,7225 12038,7226 12037,7227 12036,7227 12035,7228 12035,7229 12034,7229 12033,7230 12033,7231 12032,7232 12031,7233 12031,7233 12030,7234 12030,7235 12029,7236 12029,7237 12029,7238 12028,7239 12028,7240 12028,7241 12027,7242 12027,7243 12027,7244 12027,7245 12027,7246 12027,7247 12027,7247 12027,7248 12027,7249 12027,7250 12027,7251 12027,7252 12028,7253 12028,7254 12028,7255 12029,7256 12029,7257 12029,7258 12030,7259 12030,7260 12031,7261 12031,7261 12032,7262 12033,7263 12033,7264 12034,7265 12035,7265 12035,7266 12036,7267 12037,7267 12038,7268 12039,7269 12039,7269 12040,7270 12041,7270 12042,7271 12043,7271 12044,7271 12045,7272 12046,7272 12047,7272 12048,7273 12049,7273 12050,7273 12051,7273 12052,7273 12053,7273 12053,7273 12054,7273 12055,7273 12056,7273 12057,7273 12058,7273 12059,7272 12060,7272 12061,7272 12062,7271 12063,7271 12064,7271 12065,7270 12066,7270 12067,7269 12067,7269 12068,7268 12069,7267 12070,7267 12071,7266 12071,7265 12072,7265 12073,7264 12073,7263 12074,7262 12075,7261 12075,7261 12076,7260 12076,7259 12077,7258 12077,7257 12077,7256 12078,7255 12078,7254 12078,7253 12079,7252 12079,7251 12079,7250 12079,7249 12079,7248 12079,7247"/>
  </g>
  <g style="stroke:rgb(0,0,0);fill:none">
   <polyline points="12053,7273 12043,7270 12034,7265 12029,7256 12027,7247 12029,7237 12034,7228 12043,7223 12053,7221 12062,7223 12071,7228 12076,7237 12079,7247 12076,7256 12071,7265 12062,7270 12053,7273" style="fill:none"/>
  </g>
  <g style="stroke:none;fill:rgb(0,0,0)">
   <polygon points="12079,7448 12079,7447 12079,7446 12079,7445 12079,7444 12079,7443 12078,7442 12078,7441 12078,7440 12077,7439 12077,7438 12077,7437 12076,7436 12076,7435 12075,7434 12075,7433 12074,7432 12074,7432 12073,7431 12072,7430 12072,7429 12071,7429 12070,7428 12070,7427 12069,7427 12068,7426 12067,7425 12066,7425 12065,7424 12065,7424 12064,7423 12063,7423 12062,7423 12061,7422 12060,7422 12059,7422 12058,7421 12057,7421 12056,7421 12055,7421 12054,7421 12053,7421 12053,7421 12052,7421 12051,7421 12050,7421 12049,7421 12048,7421 12047,7422 12046,7422 12045,7422 12044,7423 12043,7423 12042,7423 12041,7424 12041,7424 12040,7425 12039,7425 12038,7426 12037,7427 12036,7427 12036,7428 12035,7429 12034,7429 12034,7430 12033,7431 12032,7432 12032,7432 12031,7433 12031,7434 12030,7435 12030,7436 12029,7437 12029,7438 12029,7439 12028,7440 12028,7441 12028,7442 12027,7443 12027,7444 12027,7445 12027,7446 12027,7447 12027,7448 12027,7448 12027,7449 12027,7450 12027,7451 12027,7452 12027,7453 12028,7454 12028,7455 12028,7456 12029,7457 12029,7458 12029,7459 12030,7460 12030,7461 12031,7462 12031,7463 12032,7464 12032,7464 12033,7465 12034,7466 12034,7467 12035,7467 12036,7468 12036,7469 12037,7469 12038,7470 12039,7471 12040,7471 12041,7472 12041,7472 12042,7473 12043,7473 12044,7473 12045,7474 12046,7474 12047,7474 12048,7475 12049,7475 12050,7475 12051,7475 12052,7475 12053,7475 12053,7475 12054,7475 12055,7475 12056,7475 12057,7475 12058,7475 12059,7474 12060,7474 12061,7474 12062,7473 12063,7473 12064,7473 12065,7472 12065,7472 12066,7471 12067,7471 12068,7470 12069,7469 12070,7469 12070,7468 12071,7467 12072,7467 12072,7466 12073,7465 12074,7464 12074,7464 12075,7463 12075,7462 12076,7461 12076,7460 12077,7459 12077,7458 12077,7457 12078,7456 12078,7455 12078,7454 12079,7453 12079,7452 12079,7451 12079,7450 12079,7449 12079,7448"/>
  </g>
  <g style="stroke:rgb(0,0,0);fill:none">
   <polyline points="12053,7475 12043,7472 12034,7466 12029,7458 12027,7448 12029,7437 12034,7429 12043,7423 12053,7421 12062,7423 12071,7429 12076,7437 12079,7448 12076,7458 12071,7466 12062,7472 12053,7475" style="fill:none"/>
   <polyline points="5225,3265 4972,3256 4752,3231 4579,3193 4465,3146 4425,3092 4465,3037 4579,2990 4752,2952 4972,2927 5225,2919 5477,2927 5697,2952 5870,2990 5984,3037 6025,3092 5984,3146 5870,3193 5697,3231 5477,3256 5225,3265" style="fill:none"/>
   <polyline points="5227,4787 4974,4778 4755,4753 4582,4715 4468,4668 4428,4614 4468,4559 4582,4512 4755,4474 4974,4449 5227,4441 5479,4449 5698,4474 5871,4512 5985,4559 6026,4614 5985,4668 5871,4715 5698,4753 5479,4778 5227,4787" style="fill:none"/>
   <polyline points="6025,3105 6026,4626" style="fill:none"/>
   <polyline points="4426,3078 4428,4600" style="fill:none"/>
  </g>
 </g>
 <g style="font-family:Arial;font-size:423;font-weight:700">
  <g style="stroke:none;fill:rgb(0,0,0)">
   <text x="7223" y="14461">(A/C, power steering)
   </text>
  </g>
 </g>
 <g style="font-family:Arial;font-size:423;font-weight:400">
  <g style="stroke:none;fill:rgb(0,0,0)">
   <text x="15240" y="5491">144V configuration:
   </text>
   <text x="15240" y="5965">8 batteries in center
   </text>
   <text x="15240" y="6439">4 batteries in front
   </text>
   <text x="15240" y="7387">120V configuration:
   </text>
   <text x="15240" y="7861">8 batteries in center
   </text>
   <text x="15240" y="8335">6 batteries in front
   </text>
   <text x="15240" y="8809">6 batteries in rear
   </text>
  </g>
  <g style="stroke:rgb(0,0,0);fill:none">
   <polyline points="2457,9882 2457,10855 2634,10855" style="fill:none"/>
  </g>
  <g style="stroke:none;fill:rgb(0,0,0)">
   <polygon points="3172,10854 3172,10852 3172,10850 3171,10848 3171,10846 3171,10844 3170,10842 3169,10840 3168,10838 3167,10836 3166,10834 3165,10833 3164,10831 3162,10829 3161,10828 3159,10826 3158,10825 3156,10824 3155,10823 3153,10822 3151,10821 3149,10820 3147,10820 3145,10819 3143,10819 3141,10818 3139,10818 3137,10818 3137,10818 3135,10818 3133,10818 3131,10819 3129,10819 3127,10820 3125,10820 3123,10821 3121,10822 3119,10823 3118,10824 3116,10825 3115,10826 3113,10828 3112,10829 3110,10831 3109,10833 3108,10834 3107,10836 3106,10838 3105,10840 3104,10842 3103,10844 3103,10846 3103,10848 3102,10850 3102,10852 3102,10854 3102,10854 3102,10856 3102,10858 3103,10860 3103,10862 3103,10864 3104,10866 3105,10868 3106,10870 3107,10872 3108,10874 3109,10875 3110,10877 3112,10879 3113,10880 3115,10882 3116,10883 3118,10884 3119,10885 3121,10886 3123,10887 3125,10888 3127,10888 3129,10889 3131,10889 3133,10890 3135,10890 3137,10890 3137,10890 3139,10890 3141,10890 3143,10889 3145,10889 3147,10888 3149,10888 3151,10887 3153,10886 3155,10885 3156,10884 3158,10883 3159,10882 3161,10880 3162,10879 3164,10877 3165,10875 3166,10874 3167,10872 3168,10870 3169,10868 3170,10866 3171,10864 3171,10862 3171,10860 3172,10858 3172,10856 3172,10854"/>
  </g>
  <g style="stroke:rgb(0,0,0);fill:none">
   <polyline points="3137,10890 3123,10887 3112,10879 3104,10867 3102,10854 3104,10840 3112,10828 3123,10820 3137,10818 3150,10820 3161,10828 3169,10840 3172,10854 3169,10867 3161,10879 3150,10887 3137,10890" style="fill:none"/>
  </g>
  <g style="stroke:none;fill:rgb(0,0,0)">
   <polygon points="2670,10854 2670,10852 2670,10850 2669,10848 2669,10846 2669,10844 2668,10842 2667,10840 2666,10838 2665,10836 2664,10834 2663,10833 2662,10831 2660,10829 2659,10828 2657,10826 2656,10825 2654,10824 2653,10823 2651,10822 2649,10821 2647,10820 2645,10820 2643,10819 2641,10819 2639,10818 2637,10818 2635,10818 2635,10818 2633,10818 2631,10818 2629,10819 2627,10819 2625,10820 2623,10820 2621,10821 2619,10822 2617,10823 2616,10824 2614,10825 2613,10826 2611,10828 2610,10829 2608,10831 2607,10833 2606,10834 2605,10836 2604,10838 2603,10840 2602,10842 2601,10844 2601,10846 2601,10848 2600,10850 2600,10852 2600,10854 2600,10854 2600,10856 2600,10858 2601,10860 2601,10862 2601,10864 2602,10866 2603,10868 2604,10870 2605,10872 2606,10874 2607,10875 2608,10877 2610,10879 2611,10880 2613,10882 2614,10883 2616,10884 2617,10885 2619,10886 2621,10887 2623,10888 2625,10888 2627,10889 2629,10889 2631,10890 2633,10890 2635,10890 2635,10890 2637,10890 2639,10890 2641,10889 2643,10889 2645,10888 2647,10888 2649,10887 2651,10886 2653,10885 2654,10884 2656,10883 2657,10882 2659,10880 2660,10879 2662,10877 2663,10875 2664,10874 2665,10872 2666,10870 2667,10868 2668,10866 2669,10864 2669,10862 2669,10860 2670,10858 2670,10856 2670,10854"/>
  </g>
  <g style="stroke:rgb(0,0,0);fill:none">
   <polyline points="2635,10890 2621,10887 2610,10879 2602,10867 2600,10854 2602,10840 2610,10828 2621,10820 2635,10818 2648,10820 2659,10828 2667,10840 2670,10854 2667,10867 2659,10879 2648,10887 2635,10890" style="fill:none"/>
   <polyline points="2633,10854 3053,10474" style="fill:none"/>
   <polyline points="12861,6331 13201,6331" style="fill:none"/>
   <polyline points="12930,6445 13133,6445" style="fill:none"/>
   <polyline points="12998,6558 13066,6558" style="fill:none"/>
   <polyline points="12547,6967 12547,5831 13031,5831 13031,6331" style="fill:none"/>
  </g>
 </g>
 <g style="font-family:Arial;font-size:494;font-weight:400">
  <g style="stroke:none;fill:rgb(0,0,0)">
   <text x="2249" y="11456">Fuel
   </text>
   <text x="2249" y="12011">Door
   </text>
  </g>
 </g>
</svg>